<?xml version="1.0" encoding="UTF-8"?> <svg xmlns="http://www.w3.org/2000/svg" width="50" height="50" viewBox="0 0 50 50" fill="none"><mask id="mask0_2_78" style="mask-type:alpha" maskUnits="userSpaceOnUse" x="0" y="0" width="50" height="50"><rect width="50" height="50" fill="#D9D9D9"></rect></mask><g mask="url(#mask0_2_78)"><path fill-rule="evenodd" clip-rule="evenodd" d="M26.5598 16.3164C25.6724 16.3338 24.8571 15.8411 24.4659 15.0511C24.4179 14.96 24.3938 14.8579 24.3938 14.7559C24.3982 14.4412 24.6233 14.1742 24.9337 14.1135C25.244 14.0506 25.5544 14.2134 25.6811 14.4999C25.856 14.8146 26.1969 15.0056 26.5597 14.9882V11.6935C25.7357 11.0554 24.5686 11.0923 23.7884 11.7825C23.4518 12.0386 23.2332 12.4206 23.1852 12.8394C23.1874 13.0153 23.1174 13.1845 22.9928 13.3104C22.8661 13.4341 22.6956 13.5058 22.5186 13.5058C21.9241 13.5014 21.3667 13.7901 21.0301 14.2763C20.6936 14.7646 20.6236 15.3854 20.84 15.9345C21.8454 15.8021 22.8595 16.0929 23.6376 16.7397C24.1097 16.616 24.6058 16.616 25.0757 16.7397C25.4057 16.8135 25.6286 17.1195 25.5959 17.4538C25.5631 17.788 25.2855 18.0463 24.9467 18.0571C24.8899 18.0637 24.8309 18.0637 24.7741 18.0571C24.0222 17.8596 23.2507 18.2894 23.0278 19.0295C22.9666 19.3681 22.6496 19.6025 22.3021 19.5678C21.9568 19.5309 21.6967 19.2357 21.7076 18.8906C21.7929 18.3631 22.0398 17.877 22.4136 17.495C21.7033 17.1304 20.853 17.1564 20.1668 17.5666C19.4827 17.9768 19.0609 18.7126 19.0565 19.507C19.0521 20.373 19.5461 21.1652 20.3307 21.545C20.5077 21.6253 20.641 21.7794 20.6957 21.9639C20.7503 22.1506 20.7219 22.3503 20.617 22.513C20.2804 23.0361 20.2454 23.6937 20.523 24.2494C20.8028 24.805 21.3535 25.174 21.9765 25.2239C22.0792 24.8441 22.2497 24.4881 22.4791 24.1691C22.8988 23.5809 23.207 23.5809 23.172 23.1403H23.1742C23.1327 22.8429 23.0081 22.5608 22.8157 22.3286C22.7043 22.1918 22.654 22.016 22.6737 21.8424C22.6933 21.6688 22.7808 21.5082 22.9185 21.3975C23.207 21.1696 23.6266 21.2151 23.8561 21.5016C24.1708 21.8858 24.3872 22.3416 24.4834 22.8299L25.0429 22.7084V22.7062C25.2243 22.6758 25.4101 22.7192 25.5587 22.8299C25.7073 22.9384 25.8035 23.1034 25.8231 23.2857C25.845 23.468 25.7904 23.6503 25.6723 23.7914C25.5543 23.9325 25.3838 24.0171 25.1981 24.0302C24.9773 24.0649 24.7609 24.1213 24.5511 24.1951C23.749 24.4773 23.2092 25.2261 23.1982 26.0704C23.1873 26.9147 23.7053 27.6765 24.4987 27.9803C25.2024 28.256 26.0024 28.1171 26.5706 27.6179V16.3164L26.5598 16.3164ZM32.5857 26.5522C32.4284 27.7286 31.6546 28.7335 30.5509 29.1915C29.4494 29.6494 28.1839 29.491 27.231 28.7747C26.2781 29.491 25.0126 29.6494 23.9089 29.1915C22.8073 28.7335 22.0314 27.7286 21.8763 26.5522C20.8993 26.4828 20.0142 25.9619 19.4831 25.1458C18.952 24.3298 18.8383 23.314 19.1727 22.4002C18.1783 21.6731 17.6231 20.4946 17.7018 19.2683C17.7783 18.0442 18.4799 16.9416 19.5596 16.3448C19.2405 15.4831 19.3213 14.526 19.7825 13.7294C20.2415 12.9329 21.0327 12.3794 21.9441 12.2166C22.5036 10.1764 25.4301 9.16067 27.231 10.5107C29.032 9.16067 31.9476 10.1764 32.518 12.2166C33.4207 12.3859 34.2031 12.9394 34.6577 13.7316C35.1145 14.526 35.1932 15.4766 34.8784 16.3339C35.9625 16.9265 36.6662 18.0269 36.7493 19.251C36.8324 20.4773 36.2816 21.6601 35.2872 22.3894C35.6237 23.3031 35.5101 24.3189 34.979 25.135C34.4479 25.9511 33.5605 26.4698 32.5858 26.5414L32.5857 26.5522ZM32.4284 18.884C32.3956 19.0685 32.2863 19.2291 32.1267 19.3289C31.9694 19.4288 31.7749 19.457 31.5935 19.4092C31.4121 19.3615 31.2591 19.24 31.1716 19.075C31.0864 18.9079 31.0733 18.7147 31.1367 18.5389C31.2328 18.1765 31.1826 17.7901 30.9968 17.4624C30.8045 17.139 30.4941 16.9003 30.1291 16.8004C29.9477 16.7613 29.7903 16.6506 29.6963 16.4922C29.6024 16.3338 29.5783 16.1428 29.6308 15.967C29.7291 15.6132 30.0963 15.4027 30.4526 15.4938C30.9159 15.6154 31.3399 15.8584 31.6787 16.1948C32.2775 15.9366 32.9354 15.8476 33.5802 15.9344C33.7987 15.3853 33.7266 14.7645 33.39 14.2762C33.0534 13.79 32.4961 13.5014 31.9016 13.5057C31.7224 13.5079 31.5497 13.4362 31.4229 13.3104C31.2984 13.1823 31.2284 13.0108 31.2306 12.8329C31.1847 12.4161 30.9683 12.0363 30.6318 11.7824C29.8472 11.0792 28.6647 11.0401 27.8342 11.6934V27.6177C28.4352 28.1278 29.2789 28.245 29.9979 27.9194C30.717 27.5938 31.1825 26.8863 31.1913 26.1006C31.2175 25.6101 31.0601 25.1283 30.7498 24.7463C30.3586 24.9763 29.9127 25.0957 29.4581 25.0957C29.0865 25.0957 28.7849 24.7983 28.7849 24.4294C28.7849 24.0604 29.0866 23.7631 29.4581 23.7631C29.7772 23.7631 30.0832 23.6372 30.3083 23.4115C30.5334 23.1879 30.6602 22.8841 30.6602 22.5672C30.6929 22.2243 30.9814 21.9617 31.3289 21.9617C31.6764 21.9617 31.9649 22.2243 31.9977 22.5672C31.9999 22.9969 31.8906 23.418 31.6786 23.7891C32.0677 24.1928 32.3496 24.6855 32.496 25.2238C33.1189 25.176 33.6719 24.807 33.9517 24.2514C34.2314 23.6958 34.1964 23.036 33.8599 22.5129C33.755 22.3501 33.7265 22.1504 33.7812 21.9638C33.8358 21.7793 33.9692 21.6252 34.1462 21.5449C35.1887 21.0001 35.6455 19.7587 35.2018 18.6734C34.7581 17.5882 33.5582 17.0152 32.4283 17.3451C32.5747 17.8487 32.5748 18.3805 32.4284 18.884ZM30.8788 35.1928H23.6051C23.2117 35.1668 22.8249 35.3057 22.5386 35.5726C22.2522 35.8418 22.0883 36.2151 22.0883 36.6058C22.0883 36.9965 22.2522 37.3719 22.5386 37.6389C22.8249 37.9059 23.2117 38.0448 23.6051 38.0209H30.8788C31.6307 37.9732 32.2164 37.3546 32.2164 36.6058C32.2164 35.857 31.6306 35.2384 30.8788 35.1928ZM23.5878 33.8862C23.3583 33.8862 23.1288 33.9144 22.9058 33.9687L22.6042 32.4689C22.3288 30.98 21.4939 29.6496 20.27 28.7467C17.715 26.8063 16.0955 23.8892 15.8113 20.7073C15.5272 17.5254 16.6003 14.372 18.7728 12.0145C20.9453 9.65737 24.0139 8.31608 27.231 8.31608C30.4481 8.31608 33.5166 9.65743 35.6892 12.0145C37.8595 14.3715 38.9348 17.5252 38.6507 20.7073C38.3644 23.8891 36.747 26.8064 34.1898 28.7467C32.9768 29.6474 32.1485 30.9692 31.8688 32.4473L31.5715 33.947C31.3442 33.8971 31.1103 33.8776 30.8787 33.8862L23.5878 33.8862ZM24.2303 39.3752L24.8969 40.875C25.0084 41.1419 25.2728 41.3112 25.5635 41.3047H28.9206C29.2069 41.3134 29.4714 41.1463 29.5807 40.8815L30.2691 39.3752L24.2303 39.3752ZM31.7949 39.2189L30.7874 41.4414L30.7895 41.4436C30.4595 42.1794 29.7208 42.6504 28.9099 42.6439H25.5528C24.7332 42.6482 23.9901 42.1707 23.6601 41.4263L22.6919 39.2428H22.694C21.7761 38.9368 21.0876 38.1771 20.8778 37.2395C20.6658 36.3019 20.9652 35.323 21.6646 34.6589L21.2777 32.7359C21.0657 31.566 20.4122 30.5199 19.4484 29.8145C16.594 27.6485 14.7865 24.3906 14.4675 20.8378C14.1505 17.2848 15.3504 13.7624 17.7743 11.1293C20.2003 8.49656 23.6274 6.99897 27.2206 6.99897C30.8115 6.99897 34.2386 8.49656 36.6646 11.1293C39.0884 13.762 40.2884 17.2845 39.9715 20.8378C39.6524 24.3908 37.847 27.6487 34.9905 29.8145C34.0288 30.5199 33.3732 31.566 33.1612 32.7359L32.7809 34.6589C33.4584 35.3274 33.7447 36.291 33.5436 37.2157C33.3404 38.1403 32.6781 38.8999 31.7864 39.232L31.7949 39.2189ZM27.8783 5.06944L27.8805 5.07161C27.8805 5.44058 27.5789 5.73792 27.2095 5.73792C26.838 5.73792 26.5364 5.44057 26.5364 5.07161V3.1768C26.5364 2.80783 26.838 2.51049 27.2095 2.51049C27.5789 2.51049 27.8805 2.80784 27.8805 3.1768V5.04988L27.8783 5.06944ZM20.4429 6.66037L19.5031 5.05427C19.3195 4.73739 18.9108 4.6267 18.5917 4.81118C18.2726 4.99349 18.1612 5.3972 18.3448 5.71625L19.2911 7.33974V7.33757C19.4791 7.65445 19.89 7.75863 20.2091 7.57198C20.5282 7.38532 20.6331 6.97725 20.4429 6.66037ZM14.8086 11.7717L13.1738 10.8319L13.176 10.8341C12.8591 10.6822 12.481 10.7994 12.3039 11.0989C12.1291 11.4006 12.2165 11.7847 12.505 11.9822L14.1442 12.922C14.4633 13.1043 14.872 12.9958 15.0556 12.6767C15.2392 12.3599 15.1299 11.954 14.8108 11.7717L14.8086 11.7717ZM40.3236 12.922L41.9409 11.9996C42.1092 11.9193 42.236 11.7738 42.2928 11.5959C42.3475 11.4179 42.3256 11.2247 42.2316 11.0641C42.1376 10.9035 41.9803 10.7885 41.7967 10.7472C41.6153 10.7082 41.423 10.7451 41.27 10.8492L39.6351 11.789C39.3466 11.9865 39.2592 12.3707 39.4362 12.6724C39.6111 12.9741 39.9914 13.0891 40.3061 12.9393L40.3236 12.922ZM35.1765 7.3224L36.1229 5.7163C36.3065 5.39725 36.195 4.99354 35.8759 4.81124C35.5568 4.62675 35.1481 4.73744 34.9645 5.05433L34.0182 6.66043C33.8346 6.97731 33.9438 7.38319 34.2651 7.56549C34.5842 7.7478 34.9929 7.63928 35.1765 7.3224ZM15.6439 48.15L14.2167 40.4818C14.1227 40.0238 13.7074 39.7026 13.2375 39.7199H10.6913C9.65093 39.7416 8.64559 39.3531 7.89372 38.6369C7.14408 37.9207 6.7113 36.9353 6.69166 35.9022V30.2525H4.3356C3.53784 30.2873 2.78384 29.8966 2.35324 29.2303C1.92268 28.5618 1.88334 27.7175 2.24833 27.0121L7.37359 17.0541V17.0563C7.88721 12.3443 10.1909 8.00566 13.8147 4.92137C17.6723 1.63971 22.6159 -0.109684 27.6935 0.00533123C32.7728 0.120363 37.6293 2.09544 41.3316 5.54862C45.2002 9.14937 47.3313 14.2236 47.1825 19.4871C47.0338 24.7526 44.621 29.7012 40.5533 33.0806C38.6366 34.6281 37.7033 37.0785 38.1077 39.4986L39.3163 47.1669V47.1647C39.4125 47.818 39.2158 48.4778 38.7787 48.9727C38.3415 49.4697 37.7077 49.7497 37.0454 49.7432L17.9649 49.9993C16.8415 50.0275 15.8602 49.246 15.6439 48.15ZM15.5324 40.2434C15.3204 39.156 14.3544 38.3747 13.2375 38.392H10.6913C9.26843 38.4289 8.07946 37.3177 8.03358 35.9025V29.5867C8.03577 29.4087 7.96583 29.2395 7.84125 29.1136C7.71667 28.9899 7.5462 28.9182 7.36916 28.9182H4.33553C4.00988 28.9443 3.69298 28.7945 3.50717 28.5276C3.32139 28.2584 3.29516 27.9133 3.43504 27.6182L8.604 17.5735H8.60619C8.65427 17.491 8.68268 17.3999 8.68924 17.3065C9.14385 12.8897 11.2923 8.81598 14.6867 5.92727C18.2929 2.85614 22.9132 1.21526 27.6624 1.31944C32.4117 1.42145 36.9553 3.25981 40.4243 6.4829C44.0196 9.82534 45.9998 14.5373 45.8577 19.4274C45.7178 24.3152 43.4732 28.9075 39.6919 32.0418C38.5772 32.9512 37.7227 34.1363 37.2134 35.4776C36.7063 36.8189 36.5621 38.2687 36.7981 39.6817L38.0242 47.3716C38.057 47.6429 37.9696 47.9142 37.7816 48.116C37.5959 48.3157 37.3314 48.4264 37.056 48.4156L17.9755 48.6717H17.9776C17.5012 48.6955 17.0793 48.3722 16.981 47.9098L15.5324 40.2434Z" fill="#1B54F8"></path></g></svg> 