<?xml version="1.0" encoding="UTF-8"?> <svg xmlns="http://www.w3.org/2000/svg" xmlns:xlink="http://www.w3.org/1999/xlink" width="90" height="90" viewBox="0 0 90 90"><defs><clipPath id="clip-path"><rect id="Rectangle_114" data-name="Rectangle 114" width="90" height="90" transform="translate(964 1518.068)" fill="#fff" stroke="#707070" stroke-width="1"></rect></clipPath></defs><g id="Mask_Group_109" data-name="Mask Group 109" transform="translate(-964 -1518.068)" clip-path="url(#clip-path)"><path id="Path_364" data-name="Path 364" d="M26.928,55.452c-3.581,3.182-4.92,6.9-3.786,11.37a9.647,9.647,0,0,1,4.348-6.428l-.562-4.942Zm15.814,4.941a9.554,9.554,0,0,1,4.35,6.423c1.131-4.472-.212-8.184-3.787-11.364Zm-7.671,9.53c.025.357.105.056.089.005a.717.717,0,0,1-.046-.06C35.1,69.887,35.087,69.905,35.072,69.923Zm.269-16.09c-.224-1.323-.131-2.142-.224-2.142s0,.821-.224,2.142a50.917,50.917,0,0,0,0,14.118c.035.207.062.4.084.583a1.06,1.06,0,0,1,.138.157,1.011,1.011,0,0,1,.142-.161c.022-.18.048-.373.084-.578a51.023,51.023,0,0,0,0-14.118ZM32.886,68.262c-.08-.477-.149-1-.216-1.555H30.614l-.507,1.555Zm4.677-1.555c-.064.558-.137,1.079-.217,1.555h2.779l-.508-1.555Zm-.833-27.1a2.284,2.284,0,1,0,0,3.23A2.284,2.284,0,0,0,36.73,39.607Zm-1.615-2.7A4.318,4.318,0,1,1,30.8,41.222,4.318,4.318,0,0,1,35.115,36.9Zm4.432-2.4,1.194,1.969A12.242,12.242,0,0,1,42.5,44.522L40.209,64.676H37.747a52.864,52.864,0,0,0-.4-11.173c-.4-2.374-1.176-3.843-2.226-3.843S33.3,51.129,32.892,53.5a52.963,52.963,0,0,0-.406,11.173H30.025l-2.3-20.154a12.657,12.657,0,0,1,.185-4.177,17.782,17.782,0,0,1,2.747-5.794,9.464,9.464,0,0,0,8.889-.045Zm-7.833-1.7a7.43,7.43,0,0,0,6.771-.043L35.15,27.267h-.075L31.718,32.8ZM27.2,17.674a1.017,1.017,0,0,1,0,2.034H25.215a1.017,1.017,0,1,1,0-2.034Zm-6.408,0a1.017,1.017,0,0,1,0,2.034H18.81a1.017,1.017,0,0,1,0-2.034Zm-6.408,0a1.017,1.017,0,1,1,0,2.034H12.4a1.017,1.017,0,0,1,0-2.034Zm25.113,4.073a16.287,16.287,0,0,1,.055-2.039H31.524a1.017,1.017,0,1,1,0-2.034h8.337a16.016,16.016,0,0,1,.767-2.491H10.53a2.711,2.711,0,0,0-2.869,2.473v4.092ZM62.571,35.8V52.592a2.712,2.712,0,0,1-2.87,2.472H45.814a19.957,19.957,0,0,0-2.238-2.019l.945-8.3a14.193,14.193,0,0,0-2.048-9.32l-5.586-9.206a2.079,2.079,0,0,0-3.543,0l-5.582,9.2a14.189,14.189,0,0,0-2.048,9.32l.944,8.3a19.948,19.948,0,0,0-2.238,2.019H10.53A2.711,2.711,0,0,1,7.661,52.59V23.781H39.692A16.18,16.18,0,0,0,62.572,35.8ZM55.655,5a16.175,16.175,0,0,1,8.951,29.647V52.592A4.734,4.734,0,0,1,59.7,57.1H47.441a12.218,12.218,0,0,1,1.777,4.095q1.071,4.738-1.8,10.346a1.014,1.014,0,0,1-1.931-.43q.024-5.93-3.012-8.418l-.348,3.052a1.018,1.018,0,0,1-.438.783l.776,2.375a1.015,1.015,0,0,1-.945,1.394h-4.69c-.9,2.453-2.536,2.453-3.436,0H28.707a1.015,1.015,0,0,1-.945-1.392l.776-2.377a1.01,1.01,0,0,1-.431-.724l-.354-3.112c-2.343,1.908-3.019,5.095-3.013,8.422a1.014,1.014,0,0,1-1.93.43q-2.867-5.61-1.8-10.35A12.2,12.2,0,0,1,22.788,57.1H10.53a4.733,4.733,0,0,1-4.9-4.506V17.655a4.733,4.733,0,0,1,4.9-4.507H41.61A16.167,16.167,0,0,1,55.655,5ZM48.1,14.007a37.5,37.5,0,0,1-3.91-1.114,14.063,14.063,0,0,0-2.641,7.264H46.6A16.337,16.337,0,0,1,48.1,14.007Zm6.535.839a33.987,33.987,0,0,1-4.48-.439,14.5,14.5,0,0,0-1.529,5.744h6.009Zm6.5-.429a33.731,33.731,0,0,1-4.465.434v5.3h6a14.5,14.5,0,0,0-1.531-5.737Zm5.981-1.525a37.178,37.178,0,0,1-3.926,1.119,16.332,16.332,0,0,1,1.5,6.139h5.062a14.071,14.071,0,0,0-2.64-7.262Zm-4.9-.746a34.72,34.72,0,0,0,3.486-.924,14.105,14.105,0,0,0-7.22-3.909,26.3,26.3,0,0,1,3.734,4.833Zm-5.545.671a31.73,31.73,0,0,0,3.393-.292,25.627,25.627,0,0,0-3.393-4.161v4.453Zm-5.445-.3a31.77,31.77,0,0,0,3.413.3V8.343a25.579,25.579,0,0,0-3.413,4.177Zm-5.618-1.3a35.192,35.192,0,0,0,3.468.92A26.183,26.183,0,0,1,52.8,7.321a14.1,14.1,0,0,0-7.19,3.9Zm3.763,18.917a35.078,35.078,0,0,0-3.763.98,14.106,14.106,0,0,0,7.433,3.954,31.119,31.119,0,0,1-3.67-4.93Zm5.267-.616q-1.555.051-3.111.257a30.267,30.267,0,0,0,3.111,4.033V29.526Zm5.143.256q-1.555-.2-3.108-.254v4.291a30.135,30.135,0,0,0,3.108-4.034Zm5.923,1.343a34.428,34.428,0,0,0-3.767-.983,31.069,31.069,0,0,1-3.667,4.934,14.111,14.111,0,0,0,7.435-3.954Zm-2.773-2.848a37.015,37.015,0,0,1,4.187,1.181,14.071,14.071,0,0,0,2.64-7.263H64.648a17.9,17.9,0,0,1-1.716,6.08ZM56.673,27.5a33.588,33.588,0,0,1,4.192.391,16.328,16.328,0,0,0,1.746-5.693H56.673v5.3Zm-6.227.4a33.9,33.9,0,0,1,4.193-.392v-5.31H48.689a16.336,16.336,0,0,0,1.756,5.7ZM44.193,29.46a37.51,37.51,0,0,1,4.185-1.176A17.93,17.93,0,0,1,46.653,22.2h-5.1a14.061,14.061,0,0,0,2.641,7.258Z" transform="translate(969.798 1524.973)" fill="#1c54f8" stroke="#fff" stroke-width="0.4" fill-rule="evenodd"></path></g></svg> 