<?xml version="1.0" encoding="UTF-8"?> <svg xmlns="http://www.w3.org/2000/svg" width="50" height="50" viewBox="0 0 50 50" fill="none"><mask id="mask0_6_357" style="mask-type:alpha" maskUnits="userSpaceOnUse" x="0" y="0" width="50" height="50"><rect width="50" height="50" fill="#D9D9D9"></rect></mask><g mask="url(#mask0_6_357)"><path fill-rule="evenodd" clip-rule="evenodd" d="M27.4564 25.1863C27.1559 24.9544 26.8962 24.8408 26.5112 24.876C26.1905 24.905 25.8799 25.0584 25.6566 25.3295L25.6555 25.3289L21.3967 30.5244C20.9479 31.0716 21.0229 31.8944 21.5629 32.3507L21.5623 32.3518C22.099 32.8042 22.8959 32.7269 23.3437 32.1836L23.3448 32.1842L27.6002 26.9933C28.0401 26.4557 27.9785 25.6477 27.4564 25.1863ZM30.6805 11.578L31.1421 13.0304L32.6464 13.0276C33.1378 13.027 33.341 13.6697 32.9447 13.9618L32.9453 13.9629L31.727 14.8579L32.1943 16.3092C32.3448 16.7774 31.8087 17.2059 31.38 16.8627L30.1958 15.9853L28.9797 16.886C28.5829 17.1797 28.0474 16.782 28.1979 16.3098L28.1968 16.3092L28.6641 14.8579L27.4458 13.9629C27.0518 13.6731 27.2393 13.0077 27.7815 13.0282L29.2495 13.031L29.7112 11.5786C29.8634 11.1001 30.5299 11.1041 30.6805 11.578ZM30.2876 13.7055L30.1958 13.4174L30.104 13.7055C29.977 14.1084 29.6093 14.0635 29.32 14.0635C29.813 14.4255 29.8639 14.4596 29.6541 15.1102C30.1801 14.7204 30.2271 14.7335 30.7359 15.1102C30.5266 14.4607 30.5758 14.4266 31.07 14.0635C30.7829 14.0641 30.4152 14.1095 30.2876 13.7055ZM44.9824 27.2592C46.2254 26.458 47.8287 27.582 47.5042 29.0577C47.4068 29.4998 47.1505 29.8794 46.7464 30.1351L42.069 33.236L42.0696 33.2372C41.271 33.752 40.2065 33.4855 39.7325 32.6564L39.7085 32.6132L38.0105 29.88L38.0094 29.8805C37.5186 29.1322 37.7279 28.0559 38.512 27.5445L38.5114 27.5434C39.2496 27.0444 40.3078 27.2575 40.8115 28.0536L40.8126 28.0531L41.6862 29.4618L44.9836 27.2609L44.9824 27.2592ZM46.02 28.0451C45.8583 28.0082 45.6814 28.0349 45.5286 28.1332L45.5275 28.1315L41.834 30.5971C41.5799 30.7767 41.2564 30.7068 41.1014 30.4567L39.9788 28.6492L39.9637 28.6276L39.9648 28.627C39.7588 28.2957 39.3363 28.2241 39.0778 28.406L39.0772 28.4054C38.7532 28.6088 38.6793 29.0418 38.8589 29.3061L38.8578 29.3066L40.5714 32.0654C40.6839 32.2399 40.7639 32.3905 41.0326 32.4513C41.1943 32.4882 41.3711 32.4615 41.5239 32.3632L41.5245 32.3643L46.1907 29.2708C46.8007 28.8509 46.494 28.1525 46.02 28.0451ZM42.1356 39.4452V41.3733H36.4038V39.843C36.4038 38.6326 35.4306 37.6439 34.238 37.6439H33.3074V36.8427C33.3074 36.0778 32.6929 35.4539 31.9396 35.4539H23.9492C23.1959 35.4539 22.5814 36.0778 22.5814 36.8427V37.6439H21.6502C20.4582 37.6439 19.4844 38.6326 19.4844 39.843V41.3733H18.256V28.906C18.256 28.8168 18.2342 28.7333 18.195 28.66C18.9018 29.3282 19.6036 30.0385 20.1851 30.6761C19.72 32.2422 20.9445 33.8173 22.5736 33.669C23.1601 33.6156 23.7208 33.3377 24.1249 32.8468L24.1238 32.8462L28.3809 27.653C29.1862 26.6705 29.0553 25.1971 28.0916 24.3777L28.091 24.3788C27.288 23.6958 26.1401 23.6662 25.3069 24.2629C22.9183 22.7235 20.3071 20.583 18.256 18.5663V8.3322H21.3989V8.74758C21.3989 9.29139 21.8366 9.73746 22.3738 9.73746H38.0178C38.2853 9.73746 38.5293 9.62552 38.7067 9.44538C39.0386 9.10842 38.9927 8.7652 38.9927 8.3322H42.1356V21.2273C41.5782 22.1451 40.5876 22.9173 39.4975 23.427C38.3228 23.9759 37.0552 24.2118 36.1089 23.9873C35.8084 23.9089 35.5252 24.097 35.472 24.3913C34.9616 27.2024 35.57 30.388 36.8286 33.1514C38.0911 35.9204 40.0163 38.2837 42.1356 39.4452ZM43.1564 21.2273C43.58 21.9251 44.2538 22.5388 45.0317 23.0167V6.1007H38.9932V7.29572H42.6465C42.928 7.29572 43.1569 7.52756 43.1569 7.81396L43.1564 21.2273ZM46.0519 23.5418C47.1594 24.0112 48.3223 24.1981 49.2015 23.9828C49.4802 23.9151 49.7561 24.0896 49.8188 24.3913C50.3292 27.2024 49.7214 30.388 48.4628 33.1514C47.8136 34.5759 46.9887 35.8931 46.0519 36.9944V44.6901C46.0519 44.9765 45.8236 45.2083 45.5415 45.2083H14.8501C14.5686 45.2083 14.3397 44.9765 14.3397 44.6901V33.2832L5.20369 44.3787C4.52821 45.1885 3.74137 45.7527 2.95229 46.0181C1.09766 46.6415 -0.233707 45.4175 0.0343574 43.4758C0.148523 42.6484 0.548101 41.7318 1.20959 40.9278L14.1388 25.2255C13.2837 24.5783 12.3552 23.9288 11.5309 23.4071C10.7043 23.9612 9.57611 23.9197 8.80773 23.256L8.80717 23.2571C7.84181 22.4354 7.70526 20.9637 8.51337 19.9778L12.7705 14.7846L12.7694 14.784C13.1774 14.2874 13.7459 14.0106 14.3403 13.9601V5.58247C14.3403 5.29664 14.5692 5.06423 14.8507 5.06423H21.3995C21.3995 4.61191 21.3446 4.24028 21.6855 3.89422C21.8617 3.71522 22.1057 3.60384 22.3744 3.60384H25.9443C26.5481 0.217682 30.6351 -1.19497 33.1428 1.18085C33.8094 1.81217 34.2789 2.65488 34.4479 3.60384H38.0178C38.5551 3.60384 38.9932 4.05048 38.9932 4.59429V5.06423H45.5421C45.8241 5.06423 46.0525 5.29607 46.0525 5.58247L46.0519 23.5418ZM45.0317 38.0667V44.1724H15.3599V32.0438L17.2353 29.7663V41.8915C17.2353 42.1779 17.4636 42.4097 17.7456 42.4097H42.646C42.9275 42.4097 43.1564 42.1779 43.1564 41.8915V39.4452C43.8039 39.0906 44.4334 38.623 45.0317 38.0667ZM37.7542 32.7189C38.935 35.3101 40.713 37.5052 42.6465 38.5502C44.7972 37.3876 46.5175 34.9601 47.5389 32.7189C48.6425 30.2971 49.215 27.5456 48.8971 25.0783C46.7582 25.2937 44.0294 24.0418 42.6465 22.2814C41.2631 24.0424 38.5349 25.2943 36.396 25.0783C36.0781 27.5456 36.6506 30.2971 37.7542 32.7189ZM15.989 14.4914C16.7008 15.0971 16.9689 16.0745 16.7098 16.9513C16.8782 17.1394 17.0539 17.3303 17.2353 17.5235V7.81396C17.2353 7.52756 17.4636 7.29572 17.7456 7.29572H21.3984V6.1007H15.3599V14.1129C15.5731 14.1982 15.7992 14.3294 15.9834 14.4885L15.9845 14.4874L15.989 14.4914ZM16.1764 17.8906L17.829 19.5811C19.8269 21.5103 22.2714 23.5049 24.5832 25.017C23.2832 26.5785 22.0033 28.169 20.7156 29.7408C19.5247 28.4582 18.1631 27.1871 16.7741 26.0176C16.2788 25.6005 15.7819 25.1982 15.2888 24.8141C15.1557 24.6783 15.2525 24.7499 15.0728 24.647C14.7852 24.426 14.4998 24.2106 14.216 24.0026C13.5445 23.51 12.8908 23.0594 12.2674 22.6587L16.1764 17.8906ZM15.7847 16.1597C15.755 15.8279 15.6017 15.5102 15.3308 15.2807L15.3314 15.2795C14.8014 14.8329 14.0006 14.9 13.5501 15.4477L13.5489 15.4472L9.29349 20.6381C8.57828 21.5103 9.24984 22.8582 10.3825 22.7548C10.7066 22.7252 11.0155 22.5707 11.2405 22.2968L11.2416 22.2973L15.497 17.1064C15.7125 16.8439 15.8149 16.499 15.7847 16.1597ZM14.9492 25.8545L1.99084 41.592C1.45359 42.2444 1.1318 42.9717 1.04282 43.6178C0.744532 45.7811 2.95564 45.4783 4.38775 43.7576L14.4399 31.5495C14.4522 31.533 14.4651 31.5165 14.4791 31.5017L17.4132 27.9383C16.6348 27.2359 15.7724 26.5069 14.9492 25.8545ZM30.1958 2.16619C29.1666 2.16619 28.3322 3.01344 28.3322 4.05844C28.3322 5.73873 30.3424 6.58598 31.5137 5.39665C32.6851 4.20732 31.8506 2.16619 30.1958 2.16619ZM30.7924 3.45326C30.263 2.9157 29.353 3.29813 29.353 4.05901C29.353 4.81988 30.263 5.20231 30.7924 4.66475C31.1214 4.33006 31.1214 3.78739 30.7924 3.45326ZM33.4887 4.13117C33.2799 1.34053 29.9619 0.0256153 27.9427 1.93832C27.3551 2.4952 26.9678 3.26744 26.9029 4.13117C26.8984 4.41302 26.6718 4.64032 26.3925 4.64032H22.4186V8.70155H37.9725V4.64032H33.9985C33.7198 4.64032 33.4932 4.41302 33.4887 4.13117ZM25.4926 21.9286H34.773C35.4452 21.9286 35.4452 20.8921 34.773 20.8921H25.4926C24.8211 20.8926 24.8211 21.9286 25.4926 21.9286ZM25.4926 19.5567H34.773C35.4452 19.5567 35.4452 18.5208 34.773 18.5208H25.4926C24.8211 18.5202 24.8211 19.5567 25.4926 19.5567ZM23.6016 37.6439H32.2866V36.8427C32.2866 36.6495 32.1293 36.4904 31.9396 36.4904H23.9492C23.7595 36.4904 23.6022 36.65 23.6022 36.8427L23.6016 37.6439ZM34.238 38.6804C30.0419 38.6804 25.8463 38.6804 21.6502 38.6804C21.0212 38.6804 20.5052 39.2043 20.5052 39.843V41.3733H35.3831V39.843C35.3831 39.2043 34.8671 38.6804 34.238 38.6804Z" fill="#1B54F8" stroke="#1B54F8" stroke-width="0.25"></path></g></svg> 