<svg version="1.2" baseProfile="tiny-ps" xmlns="http://www.w3.org/2000/svg" viewBox="0 0 1706 470" width="1706" height="470">
	<title>Saudi_Aramco_logo-svg</title>
	<defs>
		<clipPath clipPathUnits="userSpaceOnUse" id="cp1">
			<path d="M1237.21 0.13L1705.46 0.13L1705.46 468.21L1237.21 468.21L1237.21 0.13Z" />
		</clipPath>
		<clipPath clipPathUnits="userSpaceOnUse" id="cp2">
			<path d="M1440.99 700.32L1937.55 264.54L1501.68 -231.91L1005.12 203.86L1440.99 700.32Z" />
		</clipPath>
		<radialGradient id="grd1" gradientUnits="userSpaceOnUse"  cx="1018.769" cy="609.239" r="904.661">
			<stop offset="0" stop-color="#73c52a"  />
			<stop offset="0.25" stop-color="#73c52a"  />
			<stop offset="0.273" stop-color="#73c52a"  />
			<stop offset="0.293" stop-color="#72c52b"  />
			<stop offset="0.297" stop-color="#72c52b"  />
			<stop offset="0.301" stop-color="#71c52b"  />
			<stop offset="0.305" stop-color="#70c42b"  />
			<stop offset="0.309" stop-color="#6fc42c"  />
			<stop offset="0.313" stop-color="#6fc42c"  />
			<stop offset="0.316" stop-color="#6ec42c"  />
			<stop offset="0.32" stop-color="#6dc42c"  />
			<stop offset="0.324" stop-color="#6dc32c"  />
			<stop offset="0.328" stop-color="#6cc32d"  />
			<stop offset="0.332" stop-color="#6bc32d"  />
			<stop offset="0.336" stop-color="#6ac32d"  />
			<stop offset="0.34" stop-color="#6ac32d"  />
			<stop offset="0.344" stop-color="#69c22e"  />
			<stop offset="0.348" stop-color="#68c22e"  />
			<stop offset="0.352" stop-color="#68c22e"  />
			<stop offset="0.355" stop-color="#67c22e"  />
			<stop offset="0.359" stop-color="#66c12e"  />
			<stop offset="0.363" stop-color="#65c12f"  />
			<stop offset="0.367" stop-color="#65c12f"  />
			<stop offset="0.371" stop-color="#64c12f"  />
			<stop offset="0.375" stop-color="#63c12f"  />
			<stop offset="0.379" stop-color="#63c030"  />
			<stop offset="0.383" stop-color="#62c030"  />
			<stop offset="0.387" stop-color="#61c030"  />
			<stop offset="0.391" stop-color="#60c030"  />
			<stop offset="0.395" stop-color="#60c030"  />
			<stop offset="0.398" stop-color="#5fbf31"  />
			<stop offset="0.402" stop-color="#5ebf31"  />
			<stop offset="0.406" stop-color="#5ebf31"  />
			<stop offset="0.41" stop-color="#5dbf31"  />
			<stop offset="0.414" stop-color="#5cbe32"  />
			<stop offset="0.418" stop-color="#5bbe32"  />
			<stop offset="0.422" stop-color="#5bbe32"  />
			<stop offset="0.426" stop-color="#5abe32"  />
			<stop offset="0.43" stop-color="#59be32"  />
			<stop offset="0.434" stop-color="#58bd33"  />
			<stop offset="0.438" stop-color="#58bd33"  />
			<stop offset="0.441" stop-color="#56bd33"  />
			<stop offset="0.445" stop-color="#55bc34"  />
			<stop offset="0.449" stop-color="#54bb34"  />
			<stop offset="0.453" stop-color="#52bb34"  />
			<stop offset="0.457" stop-color="#51ba34"  />
			<stop offset="0.461" stop-color="#50b935"  />
			<stop offset="0.465" stop-color="#4eb935"  />
			<stop offset="0.469" stop-color="#4db835"  />
			<stop offset="0.473" stop-color="#4cb836"  />
			<stop offset="0.477" stop-color="#4ab736"  />
			<stop offset="0.48" stop-color="#49b636"  />
			<stop offset="0.484" stop-color="#48b636"  />
			<stop offset="0.488" stop-color="#46b537"  />
			<stop offset="0.492" stop-color="#45b437"  />
			<stop offset="0.496" stop-color="#44b437"  />
			<stop offset="0.5" stop-color="#42b338"  />
			<stop offset="0.504" stop-color="#41b338"  />
			<stop offset="0.508" stop-color="#40b238"  />
			<stop offset="0.512" stop-color="#3fb138"  />
			<stop offset="0.516" stop-color="#3db139"  />
			<stop offset="0.52" stop-color="#3cb039"  />
			<stop offset="0.523" stop-color="#3baf39"  />
			<stop offset="0.527" stop-color="#39af3a"  />
			<stop offset="0.531" stop-color="#38ae3a"  />
			<stop offset="0.535" stop-color="#37ae3a"  />
			<stop offset="0.539" stop-color="#36ad3a"  />
			<stop offset="0.543" stop-color="#34ac3b"  />
			<stop offset="0.547" stop-color="#33ac3b"  />
			<stop offset="0.551" stop-color="#32ab3b"  />
			<stop offset="0.555" stop-color="#31ab3b"  />
			<stop offset="0.559" stop-color="#2faa3c"  />
			<stop offset="0.563" stop-color="#2ea93c"  />
			<stop offset="0.566" stop-color="#2da93c"  />
			<stop offset="0.57" stop-color="#2ca83d"  />
			<stop offset="0.574" stop-color="#2aa73d"  />
			<stop offset="0.578" stop-color="#29a73d"  />
			<stop offset="0.582" stop-color="#28a63d"  />
			<stop offset="0.586" stop-color="#27a63e"  />
			<stop offset="0.59" stop-color="#25a53e"  />
			<stop offset="0.594" stop-color="#24a43e"  />
			<stop offset="0.598" stop-color="#23a43e"  />
			<stop offset="0.602" stop-color="#22a33f"  />
			<stop offset="0.605" stop-color="#20a33f"  />
			<stop offset="0.609" stop-color="#1fa23f"  />
			<stop offset="0.613" stop-color="#1ea13f"  />
			<stop offset="0.617" stop-color="#1da140"  />
			<stop offset="0.621" stop-color="#1ca040"  />
			<stop offset="0.625" stop-color="#1aa040"  />
			<stop offset="0.629" stop-color="#199f40"  />
			<stop offset="0.633" stop-color="#189f41"  />
			<stop offset="0.637" stop-color="#179e41"  />
			<stop offset="0.641" stop-color="#169d41"  />
			<stop offset="0.645" stop-color="#159d41"  />
			<stop offset="0.648" stop-color="#139c42"  />
			<stop offset="0.652" stop-color="#129c42"  />
			<stop offset="0.656" stop-color="#119b42"  />
			<stop offset="0.66" stop-color="#109a42"  />
			<stop offset="0.664" stop-color="#0f9a42"  />
			<stop offset="0.668" stop-color="#0e9943"  />
			<stop offset="0.672" stop-color="#0c9943"  />
			<stop offset="0.676" stop-color="#0b9843"  />
			<stop offset="0.68" stop-color="#0a9843"  />
			<stop offset="0.684" stop-color="#0b944d"  />
			<stop offset="0.688" stop-color="#0e8c63"  />
			<stop offset="0.691" stop-color="#12827b"  />
			<stop offset="0.695" stop-color="#167791"  />
			<stop offset="0.699" stop-color="#1a6aa4"  />
			<stop offset="0.703" stop-color="#1c61b0"  />
			<stop offset="0.707" stop-color="#1d5fb5"  />
			<stop offset="0.711" stop-color="#1d60b6"  />
			<stop offset="0.715" stop-color="#1c62b7"  />
			<stop offset="0.719" stop-color="#1c63b8"  />
			<stop offset="0.723" stop-color="#1c65b9"  />
			<stop offset="0.727" stop-color="#1b66ba"  />
			<stop offset="0.73" stop-color="#1b67bb"  />
			<stop offset="0.734" stop-color="#1b69bc"  />
			<stop offset="0.738" stop-color="#1a6abd"  />
			<stop offset="0.742" stop-color="#1a6cbe"  />
			<stop offset="0.746" stop-color="#1a6dbf"  />
			<stop offset="0.75" stop-color="#196fc0"  />
			<stop offset="0.754" stop-color="#1970c1"  />
			<stop offset="0.758" stop-color="#1971c2"  />
			<stop offset="0.762" stop-color="#1873c3"  />
			<stop offset="0.766" stop-color="#1874c4"  />
			<stop offset="0.77" stop-color="#1876c5"  />
			<stop offset="0.773" stop-color="#1777c6"  />
			<stop offset="0.777" stop-color="#1778c7"  />
			<stop offset="0.781" stop-color="#177ac8"  />
			<stop offset="0.785" stop-color="#167bca"  />
			<stop offset="0.789" stop-color="#167dcb"  />
			<stop offset="0.793" stop-color="#167ecc"  />
			<stop offset="0.797" stop-color="#1580cd"  />
			<stop offset="0.801" stop-color="#1581ce"  />
			<stop offset="0.805" stop-color="#1583cf"  />
			<stop offset="0.809" stop-color="#1584d0"  />
			<stop offset="0.813" stop-color="#1485d1"  />
			<stop offset="0.816" stop-color="#1487d2"  />
			<stop offset="0.82" stop-color="#1488d3"  />
			<stop offset="0.824" stop-color="#138ad4"  />
			<stop offset="0.828" stop-color="#138bd5"  />
			<stop offset="0.832" stop-color="#138dd6"  />
			<stop offset="0.836" stop-color="#128ed7"  />
			<stop offset="0.84" stop-color="#1290d8"  />
			<stop offset="0.844" stop-color="#1291d9"  />
			<stop offset="0.848" stop-color="#1193da"  />
			<stop offset="0.852" stop-color="#1194db"  />
			<stop offset="0.855" stop-color="#1196dd"  />
			<stop offset="0.859" stop-color="#1197de"  />
			<stop offset="0.863" stop-color="#1099df"  />
			<stop offset="0.867" stop-color="#109ae0"  />
			<stop offset="0.871" stop-color="#109ce1"  />
			<stop offset="0.875" stop-color="#0f9de2"  />
			<stop offset="0.879" stop-color="#0f9fe3"  />
			<stop offset="0.883" stop-color="#0fa0e4"  />
			<stop offset="0.887" stop-color="#0fa2e5"  />
			<stop offset="0.891" stop-color="#0ea3e6"  />
			<stop offset="0.895" stop-color="#0ea5e7"  />
			<stop offset="0.898" stop-color="#0ea6e8"  />
			<stop offset="0.902" stop-color="#0ea6e8"  />
			<stop offset="0.906" stop-color="#0da7e9"  />
			<stop offset="0.91" stop-color="#0da7e9"  />
			<stop offset="0.914" stop-color="#0da7e9"  />
			<stop offset="0.918" stop-color="#0da7e9"  />
			<stop offset="0.922" stop-color="#0da8e9"  />
			<stop offset="0.926" stop-color="#0da8ea"  />
			<stop offset="0.93" stop-color="#0da8ea"  />
			<stop offset="0.934" stop-color="#0da9ea"  />
			<stop offset="0.938" stop-color="#0da9ea"  />
			<stop offset="0.941" stop-color="#0da9eb"  />
			<stop offset="0.945" stop-color="#0caaeb"  />
			<stop offset="0.949" stop-color="#0caaeb"  />
			<stop offset="0.953" stop-color="#0caaeb"  />
			<stop offset="0.957" stop-color="#0cabeb"  />
			<stop offset="0.961" stop-color="#0cabec"  />
			<stop offset="0.965" stop-color="#0cabec"  />
			<stop offset="0.969" stop-color="#0cabec"  />
			<stop offset="0.973" stop-color="#0cacec"  />
			<stop offset="0.977" stop-color="#0caced"  />
			<stop offset="0.98" stop-color="#0caced"  />
			<stop offset="0.984" stop-color="#0baded"  />
			<stop offset="0.988" stop-color="#0baded"  />
			<stop offset="0.992" stop-color="#0baded"  />
			<stop offset="0.996" stop-color="#0baeee"  />
			<stop offset="1" stop-color="#0baeee"  />
		</radialGradient>
	</defs>
	<style>
		tspan { white-space:pre }
		.shp0 { fill: url(#grd1) } 
		.shp1 { fill: #59595e } 
		.shp2 { fill: #ffffff } 
	</style>
	<g id="layer1">
		<g id="g10769">
			<g id="Clip-Path: g7265" clip-path="url(#cp1)">
				<g id="g7265">
					<g id="Clip-Path: g7263" clip-path="url(#cp2)">
						<g id="g7263">
							<path id="path7261" class="shp0" d="M1440.99 700.32L1005.12 203.86L1501.68 -231.91L1937.55 264.54L1440.99 700.32Z" />
						</g>
					</g>
				</g>
			</g>
			<path id="path7267" class="shp1" d="M62.93 197.83C69.77 197.83 75.12 192.21 75.12 185.37C75.12 178.8 69.5 173.18 62.93 173.18C56.09 173.18 50.46 178.53 50.46 185.37C50.46 192.48 55.82 197.83 62.93 197.83Z" />
			<path id="path7269" class="shp1" d="M98.49 318.52C91.38 318.52 86.03 323.81 86.03 330.72C86.03 337.56 91.38 342.91 98.49 342.91C105.13 342.91 110.69 337.29 110.69 330.72C110.69 324.08 105.13 318.52 98.49 318.52Z" />
			<path id="path7271" fill-rule="evenodd" class="shp1" d="M116.79 210.02L140.43 210.02L140.43 265.63C140.43 290.08 126.68 299.22 102.56 299.22L57.1 299.22C35.7 299.22 26.35 297.66 15.17 290.28C5.48 283.71 0.13 271.25 0.13 254.99C0.13 232.64 14.9 210.02 47.42 210.02C73.84 210.02 88.06 224.52 88.06 252.22L88.06 279.65L101.27 279.65C112.72 279.65 116.79 275.79 116.79 264.88L116.79 210.02ZM64.96 254.72C64.96 237.72 58.86 229.6 45.65 229.6C32.44 229.6 24.04 239.21 24.04 254.25C24.04 271.99 32.17 279.65 51.48 279.65L64.96 279.65L64.96 254.72Z" />
			<path id="path7273" class="shp1" d="M34.48 197.83C41.32 197.83 46.67 192.21 46.67 185.37C46.67 178.8 41.05 173.18 34.48 173.18C27.57 173.18 22.28 178.53 22.28 185.37C22.28 192.48 27.36 197.83 34.48 197.83Z" />
			<path id="path7275" class="shp1" d="M233.17 254.99C233.17 232.64 218.67 210.02 186.16 210.02L167.59 210.02L167.59 229.6L187.92 229.6C201.13 229.6 209.53 239.21 209.53 254.25L209.53 279.65L148.83 279.65L148.83 299.22L233.17 299.22L233.17 254.99Z" />
			<path id="path7277" class="shp1" d="M126.68 318.52C119.83 318.52 114.48 323.81 114.48 330.72C114.48 337.56 119.83 342.91 126.68 342.91C133.59 342.91 139.14 337.29 139.14 330.72C139.14 324.08 133.59 318.52 126.68 318.52Z" />
			<path id="path7279" class="shp1" d="M1042.72 166.54L1019.89 166.54L1019.89 299.15L1042.72 299.15L1042.72 166.54Z" />
			<path id="path7281" class="shp1" d="M1027.47 318.52L1027.47 340.6C1034.86 341.89 1040.21 342.36 1045.29 342.36C1077.06 342.36 1092.58 327.87 1092.58 297.93L1092.58 218.69L1068.66 218.69L1068.66 298.2C1068.66 313.17 1060.26 322.32 1047.05 322.32C1038.72 322.32 1032.55 320.29 1030.32 319.54L1027.47 318.52Z" />
			<path id="path7283" class="shp1" d="M1130.65 180.83L1107.82 180.83L1107.82 299.22L1130.65 299.22L1130.65 180.83Z" />
			<path id="path7285" fill-rule="evenodd" class="shp1" d="M740.1 290.26C730.48 283.63 725.13 271.23 725.13 254.98C725.13 232.63 739.83 210 772.42 210C798.77 210 812.99 224.5 812.99 252.2L812.99 279.63L850.12 279.63C870.17 279.63 877.55 273.47 877.55 257.01C877.55 239.2 865.63 235.4 855.74 235.4L823.22 235.4L823.22 215.56C826.2 212.78 851.41 185.35 868.14 166.59L895.85 166.59L851.13 215.83L854.18 215.83C888.73 215.83 901.2 238.45 901.2 258.02C901.2 266.63 899.44 273.81 896.39 279.63L917.19 279.63L917.19 252.2C917.19 224.5 931.41 210 957.9 210C990.35 210 1004.85 232.63 1004.85 254.98C1004.85 289.52 985.27 299.2 948.21 299.2L813.81 299.2C813.27 327.85 797.28 342.35 766.05 342.35C757.85 342.35 748.98 341.33 737.33 339.3L737.33 317.22L738.81 317.71C748.5 321.03 757.38 322.05 764.76 322.05C781.02 322.05 789.6 314.46 789.89 299.22L782.04 299.22C760.63 299.22 751.28 297.66 740.1 290.28M940.29 279.65L954.04 279.65C973.14 279.65 981.27 271.99 981.27 254.25C981.27 239.21 972.87 229.6 959.66 229.6C946.45 229.6 940.29 237.72 940.29 254.72L940.29 279.65ZM770.59 229.6C757.38 229.6 748.98 239.21 748.98 254.25C748.98 271.99 757.11 279.65 776.41 279.65L789.62 279.65L789.62 254.72C789.62 237.72 783.8 229.6 770.59 229.6Z" />
			<path id="path7287" fill-rule="evenodd" class="shp1" d="M602.65 299.13C591.95 299.13 582.6 297.64 574.94 294.32C569.32 298.12 562 299.95 553.13 299.95C543.44 299.95 533.48 298.12 525.15 294.87C518.78 298.39 512.14 299.95 503.27 299.95C498.66 299.95 494.12 299.68 489.59 299.14L332.01 299.14C331.54 327.85 315.48 342.35 284.25 342.35C276.12 342.35 267.25 341.33 255.53 339.3L255.53 317.22L257.02 317.71C266.71 321.03 275.65 322.05 282.96 322.05C299.49 322.05 307.9 314.39 308.1 299.15L300.24 299.15C278.9 299.15 269.48 297.66 258.31 290.28C248.62 283.71 243.6 271.25 243.6 254.99C243.6 232.64 258.03 210.02 290.62 210.02C317.04 210.02 331.27 224.52 331.27 252.22L331.27 279.65L366.83 279.65C359.18 271.72 345.97 255.74 345.97 241.04C345.97 220.18 371.17 209.48 396.03 209.48C420.96 209.48 446.09 220.18 446.09 241.04C446.09 251.95 438.51 266.17 425.77 279.65L464.93 279.65L464.93 218.62L488.03 218.62L488.03 277.55C488.03 279.94 492.09 279.65 493.85 279.65L505.84 279.65C512.41 278.36 514.72 274.57 514.72 265.42L514.72 218.62L537.82 218.62L537.82 266.64C537.82 271.52 537.56 274.84 537.07 278.09C541.14 279.38 544.93 279.92 548.79 279.92C559.16 279.92 563.76 275.58 563.76 265.42L563.76 218.62L586.93 218.62L586.93 266.91C586.93 270.98 586.61 274.3 586.12 277.34C590.46 278.84 594.25 279.65 598.04 279.65L603.67 279.65C615.05 279.65 619.18 275.86 619.18 264.88L619.18 166.81L642.75 166.81L642.75 265.63C642.75 271.99 642.48 275.04 641.74 278.09C641.26 281.88 637.94 289.27 630.56 293.6C625 296.92 614.84 299.15 604.88 299.15L602.65 299.13ZM308.1 254.72C308.1 237.72 302 229.6 288.86 229.6C275.65 229.6 267.25 239.21 267.25 254.25C267.25 271.99 275.38 279.65 294.68 279.65L308.1 279.65L308.1 254.72ZM424.28 241.04C424.28 233.39 410.25 229.33 396.77 229.33C382.82 229.33 368.12 233.39 368.12 241.04C368.12 254.72 392.78 278.09 396.03 278.09C400.63 278.09 424.28 254.45 424.28 241.04Z" />
			<path id="path7289" class="shp1" d="M660.84 299.15L683.67 299.15L683.67 166.54L660.84 166.54L660.84 299.15Z" />
			<path id="path7291" class="shp1" d="M1136.27 159.97L1123.54 159.97C1118.18 159.68 1116.9 158.68 1116.9 154.62C1116.9 150.08 1118.45 149.07 1124.08 149.07C1127.6 149.07 1130.17 149.81 1133.97 152.59L1133.97 141.41L1132.21 140.67C1129.36 139.38 1126.86 138.91 1123.81 138.91C1112.09 138.91 1105.52 144.46 1105.52 154.89C1105.52 157.2 1106.01 158.69 1106.53 159.97L1102.2 159.97L1102.2 170.13L1136.27 170.13L1136.27 159.97Z" />
			<path id="path7293" fill-rule="evenodd" class="shp1" d="M1147.04 424.79C1147.04 449.72 1126.99 470.04 1102.06 470.04C1077.2 470.04 1056.81 449.72 1056.81 424.79C1056.81 399.87 1077.2 379.55 1102.06 379.55C1126.99 379.55 1147.04 399.87 1147.04 424.79ZM1126.45 424.79C1126.45 411.31 1115.54 400.41 1102.06 400.41C1088.38 400.41 1077.4 411.31 1077.4 424.79C1077.4 438.27 1088.38 449.45 1102.06 449.45C1115.54 449.45 1126.45 438.27 1126.45 424.79Z" />
			<path id="path7295" class="shp1" d="M936.43 378.53C926.53 378.53 916.37 380.56 908.24 383.88C901.6 380.09 895.3 378.53 886.16 378.53C874.71 378.53 862.99 380.09 850.32 384.43L848.02 385.17L848.02 468.21L870.64 468.21L870.64 400.14C875.18 398.58 878.77 398.11 883.31 398.11C894.56 398.11 897.81 401.64 897.81 413.35L897.81 468.21L920.71 468.21L920.71 411.86C920.71 406.78 920.46 403.46 919.69 400.41C924.23 398.86 927.82 398.11 931.88 398.11C942.52 398.11 947.33 402.92 947.33 413.35L947.33 468.21L969.95 468.21L969.95 411.59C969.95 400.41 968.19 393.77 963.11 388.22C957.49 382.12 948.14 378.53 936.42 378.53" />
			<path id="path7297" class="shp1" d="M1027.07 450.33C1012.03 450.33 1003.36 440.98 1003.36 424.66C1003.36 407.93 1012.1 398.31 1027.34 398.31C1030.45 398.31 1033.1 398.65 1035.67 399.39C1035.67 399.39 1040.35 400.75 1044.41 403.93L1054.03 387.54C1048.81 383.2 1042.65 381.31 1040.55 380.76C1034.72 379 1026.05 378.73 1026.05 378.73C998.89 378.73 980.66 397.56 980.66 425.6C980.66 452.56 997.94 469.97 1024.76 469.97C1024.76 469.97 1042.78 470.78 1054.84 459.6L1043.6 445.18C1037.5 449.04 1033.23 450.32 1027.07 450.32" />
			<path id="path7299" class="shp1" d="M732.24 379.35C700 379.35 685.03 393.57 685.03 423.78L685.03 468.21L708.13 468.21L708.13 423.51C708.13 408.27 716.8 398.85 730.28 398.85C735.83 398.85 740.17 399.87 743.15 400.68L748.5 380.56C739.56 379.35 732.24 379.35 732.24 379.35" />
			<path id="path7301" fill-rule="evenodd" class="shp1" d="M834.81 421.2L834.81 468.21L803.78 468.21C782.44 468.21 773.03 466.72 761.85 459.33C752.23 452.76 746.88 440.3 746.88 424.05C746.88 401.69 761.64 379.07 794.16 379.07C820.58 379.07 834.81 393.77 834.81 421.2ZM812.18 423.78C812.18 406.78 805.54 398.38 792.4 398.38C778.92 398.38 770.25 408.27 770.25 423.23C770.25 441.25 778.92 449.18 798.23 449.18L812.18 449.18L812.18 423.78Z" />
			<path id="path7303" fill-rule="evenodd" class="shp1" d="M672.43 421.2L672.43 468.21L641.67 468.21C620.33 468.21 610.91 466.72 599.74 459.33C590.12 452.76 584.76 440.3 584.76 424.05C584.76 401.69 599.46 379.07 632.05 379.07C658.47 379.07 672.43 393.77 672.43 421.2ZM649.05 423.78C649.05 406.51 642.96 398.38 629.48 398.38C615.99 398.38 607.39 408.27 607.39 423.23C607.39 441.25 615.99 449.18 635.3 449.18L649.05 449.18L649.05 423.78Z" />
			<path id="path7305" class="shp1" d="M188.05 414.43C174.23 410.3 168.68 408 168.75 403.66C168.75 398.92 175.79 396.35 184.33 396.35C192.86 396.35 201.06 398.31 207.22 400.27L212.51 380.56C203.43 378.47 192.25 377.25 184.8 377.25C160.35 377.25 147 388.29 147 404.88C147 413.08 149.37 424.45 174.98 431.63C190.09 436.04 195.57 436.58 195.57 441.52C195.57 447.01 186.16 450.94 175.25 450.94C164.07 450.94 152.62 446.06 145.64 442.67L145.64 464.14C153.91 467.53 164.34 470.1 174.84 470.1C201.53 470.1 217.32 458.79 217.32 441.32C217.32 428.11 209.26 420.86 188.05 414.43" />
			<path id="path7307" class="shp1" d="M381.46 435.22C381.46 446.13 377.2 450.19 365.48 450.19L364.19 450.19C352.54 450.19 348.2 446.13 348.2 435.22L348.2 380.29L325.57 380.29L325.57 436.71C325.57 462.92 340.34 470.04 362.9 470.04L366.76 470.04C390.88 470.04 404.84 463.13 404.84 436.71L404.84 380.29L381.46 380.29L381.46 435.22Z" />
			<path id="path7309" class="shp1" d="M527.11 348.33C520.2 348.33 514.85 353.68 514.85 360.52C514.85 367.36 520.2 372.71 527.11 372.71C533.96 372.71 539.31 367.36 539.31 360.52C539.31 353.88 533.68 348.33 527.11 348.33Z" />
			<path id="path7311" class="shp1" d="M515.94 468.21L538.29 468.21L538.29 382.87L515.94 382.87L515.94 468.21Z" />
			<path id="path7313" fill-rule="evenodd" class="shp1" d="M312.84 421.2L312.84 468.21L281.88 468.21C260.54 468.21 251.12 466.72 239.94 459.33C230.26 452.76 224.97 440.3 224.97 424.05C224.97 401.69 239.67 379.07 272.19 379.07C298.68 379.07 312.84 393.77 312.84 421.2ZM290.28 423.78C290.28 406.78 283.64 398.38 270.43 398.38C256.95 398.38 248.35 408.27 248.35 423.23C248.35 441.25 256.95 449.18 276.26 449.18L290.28 449.18L290.28 423.78Z" />
			<path id="path7315" fill-rule="evenodd" class="shp1" d="M501.44 346.57L501.44 468.21L473.19 468.21C451.85 468.21 442.43 466.72 431.32 459.33C421.64 452.7 416.28 440.3 416.28 424.05C416.28 396.82 434.57 379.35 460.99 379.35L463.3 379.35C469.13 379.35 474.75 381.11 479.56 384.15L479.56 346.56L501.44 346.57ZM479.56 424.05C479.56 405.76 474.48 398.38 461.74 398.38C448.33 398.38 439.66 408.27 439.66 423.23C439.66 441.32 448.06 449.18 467.36 449.18L479.56 449.18L479.56 424.05Z" />
			<path id="path7317" class="shp2" d="M1495.52 196.54C1501.07 199.32 1504.73 204.94 1504.06 209.55C1503.18 214.22 1498.23 215.71 1492.47 212.93C1486.71 210.09 1483.05 204.33 1483.94 199.66C1484.95 195.19 1489.96 193.83 1495.52 196.54" />
			<path id="path7319" class="shp2" d="M1512.05 106.46C1516.52 108.9 1519.7 112.9 1519.37 115.74C1518.82 118.66 1514.96 119.06 1510.22 116.69C1505.61 114.25 1502.43 110.12 1502.9 107.21C1503.51 104.43 1507.44 104.09 1512.05 106.46" />
			<path id="path7321" class="shp2" d="M1513.54 97.52C1517.33 99.55 1519.97 102.81 1519.7 105.18C1519.31 107.48 1516.05 107.68 1512.18 105.72C1508.26 103.69 1505.61 100.3 1505.95 98C1506.49 95.69 1509.75 95.56 1513.54 97.51" />
			<path id="path7323" class="shp2" d="M1514.96 88.58C1518.49 90.48 1520.92 93.53 1520.72 95.56C1520.33 97.66 1517.33 97.8 1513.74 95.95C1510.15 93.99 1507.65 90.94 1507.98 88.84C1508.48 86.81 1511.44 86.74 1514.96 88.55" />
			<path id="path7325" class="shp2" d="M1516.32 79.91C1519.57 81.67 1521.87 84.45 1521.67 86.28C1521.32 88.18 1518.55 88.25 1515.23 86.48C1511.91 84.72 1509.61 81.87 1509.88 80.04C1510.27 78.21 1513.07 78.21 1516.32 79.9" />
			<path id="path7327" class="shp2" d="M1517.6 71.92C1520.65 73.55 1522.75 76.06 1522.55 77.75C1522.3 79.37 1519.77 79.44 1516.66 77.75C1513.61 76.12 1511.44 73.55 1511.71 71.85C1512.05 70.3 1514.63 70.3 1517.6 71.9" />
			<path id="path7329" class="shp2" d="M1518.82 64.67C1521.6 66.23 1523.57 68.54 1523.43 70.03C1523.18 71.45 1520.79 71.45 1517.94 69.88C1515.1 68.32 1513.14 66.02 1513.34 64.53C1513.68 63.11 1515.98 63.17 1518.82 64.67" />
			<path id="path7331" class="shp2" d="M1519.91 57.7C1522.48 59.12 1524.31 60.95 1524.11 62.51C1523.91 64.06 1521.8 63.72 1519.16 62.31C1516.58 60.89 1514.69 58.99 1514.89 57.5C1515.24 55.94 1517.33 56.28 1519.91 57.7" />
			<path id="path7333" class="shp2" d="M1520.99 50.59C1523.23 51.87 1524.85 53.43 1524.72 54.72C1524.42 56.01 1522.69 55.67 1520.38 54.43C1518.15 53.21 1516.52 51.58 1516.66 50.23C1516.95 49.01 1518.75 49.35 1520.99 50.57" />
			<path id="path7335" class="shp2" d="M1522.07 43.95C1524.11 45.1 1525.6 46.53 1525.46 47.68C1525.27 48.83 1523.63 48.55 1521.6 47.38C1519.5 46.16 1518.01 44.74 1518.14 43.59C1518.34 42.44 1520.04 42.77 1522.07 43.93" />
			<path id="path7337" class="shp2" d="M1523.09 37.38C1524.85 38.4 1526.14 39.55 1526.01 40.56C1525.86 41.58 1524.45 41.24 1522.69 40.22C1520.93 39.2 1519.57 37.98 1519.71 37.04C1519.91 36.02 1521.34 36.36 1523.1 37.38" />
			<path id="path7339" class="shp2" d="M1524.11 31.22C1525.67 32.1 1526.75 33.11 1526.68 33.99C1526.54 34.87 1525.26 34.53 1523.7 33.65C1522.15 32.77 1521 31.68 1521.13 30.8C1521.28 29.99 1522.55 30.31 1524.11 31.2" />
			<path id="path7341" class="shp2" d="M1489.69 228.04C1484.95 225.67 1481.9 220.72 1482.65 216.73C1483.46 212.8 1487.73 211.51 1492.4 213.75C1497.01 216.05 1500.06 220.86 1499.45 224.86C1498.7 228.92 1494.5 230.28 1489.69 228.04" />
			<path id="path7343" class="shp2" d="M1486.04 247.27C1481.36 244.97 1478.38 240.03 1479.19 235.89C1480.07 231.9 1484.21 230.48 1488.81 232.65C1493.35 234.88 1496.33 239.69 1495.65 243.75C1494.84 247.95 1490.71 249.44 1486.04 247.28" />
			<path id="path7345" class="shp2" d="M1482.11 267.25C1477.57 265.09 1474.79 260.14 1475.53 255.94C1476.48 251.81 1480.55 250.32 1485.02 252.35C1489.42 254.59 1492.27 259.4 1491.59 263.53C1490.78 267.73 1486.71 269.36 1482.11 267.26" />
			<path id="path7347" class="shp2" d="M1477.84 289.27C1473.36 287.17 1470.66 282.22 1471.47 277.96C1472.42 273.76 1476.48 272.13 1480.75 274.1C1485.09 276.2 1487.86 280.94 1487.05 285.2C1486.24 289.47 1482.24 291.23 1477.84 289.27" />
			<path id="path7349" class="shp2" d="M1473.37 311.21C1469.57 309.38 1467.2 305.05 1467.95 301.12C1468.83 297.26 1472.35 295.7 1476.14 297.39C1479.94 299.15 1482.24 303.49 1481.56 307.35C1480.75 311.21 1477.23 312.9 1473.37 311.21" />
			<path id="path7351" class="shp2" d="M1467.95 337.83C1464.22 336.14 1462.05 331.8 1462.8 327.74C1463.75 323.88 1467.13 322.11 1470.86 323.74C1474.45 325.37 1476.69 329.63 1475.94 333.63C1475.13 337.62 1471.67 339.45 1467.95 337.83" />
			<path id="path7353" class="shp2" d="M1461.92 366.61C1458.53 365.12 1456.63 361.13 1457.44 357.33C1458.32 353.61 1461.44 351.85 1464.69 353.2C1467.94 354.69 1469.84 358.62 1469.17 362.34C1468.36 366.14 1465.24 367.97 1461.92 366.61" />
			<path id="path7355" class="shp2" d="M1455.89 395.4C1453.04 394.18 1451.48 390.65 1452.23 387.2C1453.04 383.82 1455.76 382.12 1458.6 383.21C1461.38 384.43 1462.93 387.88 1462.26 391.27C1461.45 394.65 1458.73 396.48 1455.89 395.4" />
			<path id="path7357" class="shp2" d="M1515.17 207.38C1519.5 209.62 1522.55 214.15 1522.07 217.88C1521.53 221.67 1517.74 222.82 1513.2 220.66C1508.66 218.35 1505.68 213.75 1506.22 209.95C1506.9 206.3 1510.76 205.21 1515.17 207.38" />
			<path id="path7359" class="shp2" d="M1534.61 215.51C1539.96 218.35 1543.75 224.11 1543.35 228.78C1542.86 233.59 1538.27 235.15 1532.71 232.37C1527.16 229.46 1523.36 223.57 1523.84 218.83C1524.58 214.15 1529.12 212.8 1534.61 215.51" />
			<path id="path7361" class="shp2" d="M1669.08 208.4C1666.84 207.04 1665.35 207.45 1665.62 209.41C1665.87 211.44 1667.86 214.09 1670.1 215.58C1672.33 216.93 1673.82 216.53 1673.55 214.49C1673.21 212.46 1671.25 209.82 1669.09 208.4" />
			<path id="path7363" class="shp2" d="M1653.43 197.7C1650.52 195.94 1648.42 196.48 1648.69 198.98C1649.03 201.49 1651.53 204.88 1654.51 206.77C1657.49 208.53 1659.46 207.99 1659.19 205.42C1658.84 202.84 1656.34 199.52 1653.43 197.69" />
			<path id="path7365" class="shp2" d="M1609.74 343.65C1605.94 341.35 1603.03 342.91 1602.96 347.45C1602.96 351.98 1605.88 357.4 1609.67 359.84C1613.53 362.28 1616.38 360.52 1616.38 355.91C1616.33 351.38 1613.46 346.03 1609.74 343.65" />
			<path id="path7367" class="shp2" d="M1591.11 306.67C1586.7 304.17 1583.25 305.86 1582.98 310.6C1582.93 315.41 1586.23 321.23 1590.7 323.87C1595.11 326.45 1598.56 324.62 1598.69 319.74C1598.69 314.93 1595.38 309.24 1591.11 306.67" />
			<path id="path7369" class="shp2" d="M1571.46 274.7C1567.12 272.4 1563.67 273.89 1563.33 278.23C1563.13 282.56 1566.31 287.91 1570.72 290.42C1575.12 292.79 1578.57 291.17 1578.84 286.69C1578.89 282.36 1575.73 277.14 1571.46 274.71" />
			<path id="path7371" class="shp2" d="M1559.4 143.65C1555.47 141.62 1552.36 142.02 1552.09 144.8C1551.94 147.57 1554.86 151.37 1558.86 153.54C1562.86 155.63 1565.97 155.09 1566.11 152.32C1566.16 149.54 1563.26 145.81 1559.4 143.65" />
			<path id="path7373" class="shp2" d="M1639.48 201.76C1636.43 200 1634.26 200.54 1634.4 203.18C1634.69 205.82 1637.24 209.34 1640.36 211.24C1643.4 213.07 1645.57 212.39 1645.37 209.75C1645.03 207.11 1642.52 203.59 1639.48 201.76" />
			<path id="path7375" class="shp2" d="M1623.69 192.28C1620.44 190.38 1618.07 190.99 1618.14 193.7C1618.33 196.41 1621.05 200 1624.3 201.96C1627.62 203.86 1629.92 203.18 1629.79 200.47C1629.59 197.76 1626.87 194.17 1623.69 192.28" />
			<path id="path7377" class="shp2" d="M1592.12 186.93C1588.33 184.83 1585.42 185.51 1585.35 188.55C1585.4 191.67 1588.4 195.73 1592.19 197.97C1596.12 200 1598.97 199.26 1598.97 196.14C1598.92 193.02 1595.92 189.03 1592.12 186.93" />
			<path id="path7379" class="shp2" d="M1608.04 182.66C1604.45 180.69 1601.74 181.24 1601.74 184.15C1601.89 187.06 1604.79 190.99 1608.52 193.16C1612.17 195.19 1614.89 194.44 1614.75 191.53C1614.55 188.55 1611.7 184.76 1608.04 182.66" />
			<path id="path7381" class="shp2" d="M1591.45 173.04C1587.38 170.87 1584.2 171.48 1584.13 174.6C1584.13 177.78 1587.38 182.12 1591.51 184.42C1595.71 186.66 1598.83 185.98 1598.76 182.73C1598.61 179.54 1595.44 175.35 1591.45 173.04" />
			<path id="path7383" class="shp2" d="M1575.32 177.11C1571.12 174.87 1567.73 175.62 1567.53 178.87C1567.48 182.25 1570.72 186.65 1574.98 189.02C1579.32 191.33 1582.64 190.51 1582.77 187.13C1582.77 183.81 1579.52 179.41 1575.32 177.1" />
			<path id="path7385" class="shp2" d="M1552.76 244.16C1548.29 241.85 1544.57 243.21 1544.16 247.27C1543.82 251.47 1547.08 256.55 1551.61 259.06C1556.08 261.36 1559.74 259.94 1560.15 255.74C1560.34 251.54 1557.17 246.53 1552.76 244.16" />
			<path id="path7387" class="shp2" d="M1554.05 226.55C1549.31 224.04 1545.31 225.33 1544.84 229.6C1544.54 233.93 1548.02 239.28 1552.97 241.92C1557.84 244.5 1561.77 243.07 1562.11 238.67C1562.31 234.34 1558.86 229.12 1554.05 226.55" />
			<path id="path7389" class="shp2" d="M1555.27 209.89C1550.05 207.25 1545.79 208.47 1545.31 212.87C1545.07 217.34 1548.84 223.03 1554.12 225.94C1559.4 228.65 1563.67 227.29 1564.01 222.75C1564.21 218.22 1560.42 212.66 1555.27 209.88" />
			<path id="path7391" class="shp2" d="M1556.35 194.38C1551.34 191.8 1547.21 192.82 1546.73 196.95C1546.44 201.09 1550.19 206.5 1555.34 209.28C1560.49 211.92 1564.55 210.77 1564.89 206.5C1565.04 202.31 1561.3 197.09 1556.35 194.38" />
			<path id="path7393" class="shp2" d="M1557.1 180.9C1552.63 178.66 1549.04 179.41 1548.7 182.86C1548.5 186.45 1551.75 190.99 1556.22 193.43C1560.76 195.8 1564.28 194.85 1564.62 191.33C1564.67 187.81 1561.43 183.27 1557.1 180.9" />
			<path id="path7395" class="shp2" d="M1558.05 167.22C1553.3 164.71 1549.44 165.46 1549.04 169.05C1548.84 172.7 1552.42 177.58 1557.23 180.22C1562.11 182.8 1565.97 181.91 1566.24 178.19C1566.29 174.53 1562.79 169.79 1558.05 167.22" />
			<path id="path7397" class="shp2" d="M1558.79 154.75C1554.12 152.32 1550.39 152.93 1550.05 156.31C1549.86 159.7 1553.37 164.37 1558.12 166.95C1562.86 169.45 1566.58 168.71 1566.79 165.19C1566.84 161.8 1563.4 157.26 1558.79 154.76" />
			<path id="path7399" class="shp2" d="M1528.65 116.56C1525.33 114.93 1522.62 115.2 1522.28 117.23C1522.03 119.33 1524.31 122.31 1527.63 124.07C1530.95 125.77 1533.73 125.49 1534 123.4C1534.19 121.3 1531.9 118.38 1528.65 116.56Z" />
			<path id="path7401" class="shp2" d="M1529.26 106.87C1526.28 105.31 1523.77 105.51 1523.5 107.26C1523.3 109.16 1525.4 111.8 1528.44 113.43C1531.42 115.05 1533.93 114.78 1534.2 112.94C1534.35 111.11 1532.23 108.47 1529.26 106.84" />
			<path id="path7403" class="shp2" d="M1529.8 97.66C1527.16 96.3 1524.99 96.44 1524.79 97.95C1524.59 99.51 1526.48 101.82 1529.05 103.24C1531.69 104.59 1533.8 104.46 1534.07 102.89C1534.21 101.34 1532.37 99.1 1529.8 97.68" />
			<path id="path7405" class="shp2" d="M1530.14 88.79C1527.77 87.57 1525.87 87.43 1525.66 88.93C1525.47 90.49 1527.22 92.32 1529.53 93.61C1531.97 94.83 1533.86 94.96 1534.06 93.46C1534.21 91.9 1532.44 90.07 1530.14 88.79Z" />
			<path id="path7407" class="shp2" d="M1530.61 80.52C1528.44 79.37 1526.68 79.17 1526.48 80.52C1526.33 81.94 1527.97 83.64 1530.13 84.86C1532.3 86.01 1534.06 86.15 1534.27 84.81C1534.42 83.39 1532.78 81.69 1530.61 80.54" />
			<path id="path7409" class="shp2" d="M1531.02 72.19C1529.05 71.18 1527.49 70.97 1527.36 72.14C1527.21 73.36 1528.65 74.78 1530.61 75.87C1532.51 76.96 1534.07 77.09 1534.2 75.87C1534.25 74.72 1532.91 73.29 1531.01 72.21" />
			<path id="path7411" class="shp2" d="M1531.36 64.81C1529.53 63.86 1528.11 63.66 1527.97 64.66C1527.82 65.81 1529.19 67.1 1530.95 68.12C1532.78 69.07 1534.2 69.34 1534.33 68.17C1534.38 67.09 1533.12 65.8 1531.36 64.78" />
			<path id="path7413" class="shp2" d="M1531.7 57.29C1530.07 56.41 1528.85 56.14 1528.72 57.1C1528.67 58.04 1529.8 59.19 1531.42 60.07C1532.98 60.95 1534.27 61.16 1534.34 60.22C1534.39 59.27 1533.26 58.19 1531.7 57.31" />
			<path id="path7415" class="shp2" d="M1510.96 236.3C1514.49 237.93 1517.47 236.91 1517.88 233.93C1518.27 230.89 1515.98 227.29 1512.59 225.53C1509.14 223.91 1506.22 224.86 1505.61 227.84C1505.22 230.82 1507.51 234.48 1510.96 236.3" />
			<path id="path7417" class="shp2" d="M1508.05 255.54C1511.37 257.16 1514.22 256.08 1514.76 253.03C1515.1 250.05 1512.93 246.53 1509.68 244.84C1506.36 243.28 1503.51 244.29 1502.97 247.27C1502.58 250.25 1504.73 253.84 1508.05 255.54" />
			<path id="path7419" class="shp2" d="M1503.45 275.31C1506.76 276.87 1509.54 275.71 1510.08 272.61C1510.48 269.49 1508.39 265.9 1505.21 264.27C1501.96 262.79 1499.11 263.93 1498.5 266.98C1498.01 270.1 1500.2 273.69 1503.45 275.31" />
			<path id="path7421" class="shp2" d="M1499.25 296.85C1502.29 298.27 1505 297.05 1505.48 294.01C1505.87 291.03 1503.92 287.57 1500.94 286.08C1497.89 284.66 1495.25 285.79 1494.71 288.86C1494.22 291.91 1496.2 295.36 1499.25 296.85" />
			<path id="path7423" class="shp2" d="M1494.16 318.39C1497.01 319.68 1499.58 318.44 1500.06 315.47C1500.45 312.5 1498.7 309.18 1495.92 307.82C1493.08 306.53 1490.5 307.77 1489.96 310.67C1489.47 313.65 1491.31 317.03 1494.16 318.39" />
			<path id="path7425" class="shp2" d="M1488.2 343.99C1490.91 345.21 1493.28 343.84 1493.83 340.94C1494.22 338.03 1492.61 334.85 1489.97 333.63C1487.32 332.41 1484.95 333.68 1484.34 336.54C1483.85 339.52 1485.56 342.77 1488.2 343.99" />
			<path id="path7427" class="shp2" d="M1574.98 164.37C1571.06 162.27 1568.01 162.81 1567.8 165.79C1567.75 168.77 1570.78 172.77 1574.71 175C1578.78 177.03 1581.83 176.43 1581.89 173.38C1581.89 170.4 1578.91 166.47 1574.98 164.37" />
			<path id="path7429" class="shp2" d="M1574.17 191.26C1570.65 189.43 1567.8 190.11 1567.67 192.95C1567.62 195.87 1570.24 199.59 1573.83 201.62C1577.42 203.52 1580.2 202.77 1580.34 199.79C1580.34 196.95 1577.63 193.22 1574.17 191.26" />
			<path id="path7431" class="shp2" d="M1573.83 205.21C1569.83 203.05 1566.58 203.93 1566.38 207.31C1566.23 210.77 1569.3 215.17 1573.43 217.47C1577.56 219.64 1580.67 218.62 1580.81 215.17C1580.81 211.78 1577.83 207.38 1573.83 205.21" />
			<path id="path7433" class="shp2" d="M1571.87 255.13C1567.87 253.03 1564.69 254.25 1564.42 258.04C1564.27 261.83 1567.19 266.51 1571.19 268.74C1575.26 270.91 1578.37 269.62 1578.57 265.76C1578.62 261.9 1575.73 257.36 1571.87 255.13" />
			<path id="path7435" class="shp2" d="M1638.19 188.08C1634.87 186.18 1632.5 186.72 1632.7 189.43C1633 192.21 1635.75 195.87 1639.14 197.9C1642.52 199.87 1644.76 199.26 1644.56 196.48C1644.21 193.7 1641.44 190.05 1638.19 188.08" />
			<path id="path7437" class="shp2" d="M1589.68 330.65C1586.03 328.55 1583.18 330.11 1582.91 334.24C1582.86 338.5 1585.62 343.45 1589.28 345.68C1593 347.78 1595.85 346.22 1596.05 341.96C1596.05 337.69 1593.34 332.81 1589.68 330.65" />
			<path id="path7439" class="shp2" d="M1609.94 368.51C1606.48 366.34 1603.84 367.97 1603.71 372.3C1603.71 376.71 1606.42 381.92 1609.87 384.29C1613.4 386.46 1616.04 384.83 1616.1 380.36C1616.06 375.9 1613.4 370.75 1609.94 368.51" />
			<path id="path7441" class="shp2" d="M1569.83 295.56C1565.84 293.4 1562.59 294.89 1562.25 299.09C1562.05 303.36 1565.03 308.44 1569.09 310.74C1573.16 312.91 1576.41 311.35 1576.68 307.01C1576.82 302.75 1573.83 297.8 1569.83 295.57" />
			<path id="path7443" class="shp2" d="M1551.14 264.48C1547.14 262.45 1543.89 263.73 1543.41 267.59C1543.12 271.45 1545.99 276.13 1549.99 278.36C1554.05 280.39 1557.37 278.97 1557.71 275.04C1557.91 271.19 1555.07 266.65 1551.14 264.48" />
			<path id="path7445" class="shp2" d="M1532.98 234.2C1528.58 232.03 1524.92 233.25 1524.38 237.12C1523.89 241.11 1526.95 245.92 1531.36 248.22C1535.83 250.46 1539.49 249.1 1539.96 245.11C1540.3 241.18 1537.25 236.44 1532.98 234.2" />
			<path id="path7447" class="shp2" d="M1572.54 238.2C1568.89 236.23 1565.91 237.25 1565.7 240.64C1565.56 244.02 1568.34 248.29 1572.07 250.39C1575.87 252.35 1578.71 251.27 1578.91 247.81C1578.96 244.43 1576.27 240.23 1572.54 238.2" />
			<path id="path7449" class="shp2" d="M1559.94 133.01C1556.49 131.19 1553.71 131.52 1553.58 133.82C1553.43 136.13 1556.01 139.45 1559.54 141.34C1562.99 143.17 1565.7 142.76 1565.91 140.46C1565.91 138.09 1563.33 134.91 1559.94 133.01" />
			<path id="path7451" class="shp2" d="M1622.81 180.02C1620.1 178.46 1618.07 178.94 1618.2 181.04C1618.35 183.2 1620.64 186.18 1623.35 187.81C1626.13 189.37 1628.1 188.89 1627.96 186.66C1627.76 184.49 1625.52 181.65 1622.81 180.02" />
			<path id="path7453" class="shp2" d="M1592.26 216.66C1589.14 214.97 1586.77 215.71 1586.7 218.42C1586.7 221.13 1589.07 224.65 1592.19 226.41C1595.38 228.1 1597.75 227.36 1597.75 224.58C1597.7 221.88 1595.31 218.42 1592.26 216.66" />
			<path id="path7455" class="shp2" d="M1590.77 286.22C1586.91 284.05 1583.93 285.41 1583.72 289.33C1583.72 293.4 1586.57 298.27 1590.43 300.58C1594.36 302.74 1597.34 301.39 1597.41 297.26C1597.41 293.26 1594.56 288.45 1590.77 286.22" />
			<path id="path7457" class="shp2" d="M1573.22 221.94C1569.7 220.05 1566.79 220.93 1566.58 224.11C1566.53 227.3 1569.16 231.36 1572.82 233.32C1576.4 235.29 1579.25 234.34 1579.45 231.09C1579.45 227.9 1576.81 223.97 1573.22 221.94" />
			<path id="path7459" class="shp2" d="M1610.08 242.74C1606.62 240.77 1604.05 241.65 1603.98 244.97C1604.03 248.29 1606.82 252.49 1610.35 254.59C1613.87 256.62 1616.44 255.61 1616.38 252.22C1616.23 248.9 1613.53 244.77 1610.08 242.74" />
			<path id="path7461" class="shp2" d="M1625.05 410.91C1622.27 408.94 1620.17 410.37 1620.1 414.36C1620.15 418.36 1622.41 423.03 1625.18 425.2C1628.03 427.23 1630.06 425.74 1630.06 421.68C1630.01 417.68 1627.82 413.01 1625.05 410.91" />
			<path id="path7463" class="shp2" d="M1608.65 196.68C1605.4 194.85 1603.03 195.46 1603.03 198.17C1603.18 200.88 1605.74 204.4 1608.92 206.3C1612.24 208.12 1614.61 207.45 1614.48 204.74C1614.33 202.03 1611.84 198.51 1608.65 196.68" />
			<path id="path7465" class="shp2" d="M1543.75 124.75C1540.64 123.12 1538.06 123.39 1537.79 125.43C1537.6 127.53 1539.96 130.44 1543.08 132.2C1546.26 133.83 1548.83 133.49 1549.04 131.39C1549.09 129.36 1546.87 126.45 1543.75 124.75" />
			<path id="path7467" class="shp2" d="M1575.46 131.39C1572.48 129.83 1570.17 130.1 1570.11 132.07C1570.11 134.1 1572.41 136.94 1575.39 138.57C1578.44 140.2 1580.81 139.93 1580.81 137.89C1580.76 135.86 1578.44 133.08 1575.46 131.39" />
			<path id="path7469" class="shp2" d="M1607.57 171.55C1605.06 170.13 1603.23 170.53 1603.3 172.43C1603.35 174.33 1605.4 176.97 1607.91 178.39C1610.42 179.75 1612.24 179.34 1612.17 177.44C1612.03 175.48 1610.08 172.91 1607.57 171.55" />
			<path id="path7471" class="shp2" d="M1591.51 232.64C1588.33 230.88 1585.89 231.7 1585.75 234.61C1585.75 237.52 1588.19 241.18 1591.45 243.08C1594.63 244.84 1597.07 243.96 1597.14 240.98C1597.09 238.06 1594.63 234.41 1591.51 232.65" />
			<path id="path7473" class="shp2" d="M1609.13 226.75C1606.35 225.19 1604.32 225.87 1604.32 228.38C1604.37 230.82 1606.56 234.07 1609.33 235.69C1612.11 237.25 1614.14 236.5 1614.08 234C1613.93 231.5 1611.78 228.38 1609.13 226.76" />
			<path id="path7475" class="shp2" d="M1627.08 253.44C1624.03 251.61 1621.8 252.49 1621.86 255.54C1622.01 258.58 1624.5 262.44 1627.55 264.41C1630.67 266.24 1632.84 265.36 1632.77 262.24C1632.57 259.19 1630.06 255.33 1627.08 253.44" />
			<path id="path7477" class="shp2" d="M1654.58 211.99C1652.21 210.57 1650.66 211.04 1650.86 213.07C1651.05 215.17 1653.02 217.95 1655.39 219.44C1657.7 220.86 1659.32 220.39 1659.12 218.29C1658.87 216.19 1656.82 213.48 1654.58 211.99" />
			<path id="path7479" class="shp2" d="M1575.53 122.04C1572.95 120.62 1570.85 120.75 1570.78 122.43C1570.83 124.13 1572.88 126.63 1575.53 128.12C1578.17 129.54 1580.2 129.27 1580.27 127.58C1580.22 125.89 1578.17 123.45 1575.53 122.03" />
			<path id="path7481" class="shp2" d="M1575.39 142.16C1572.61 140.67 1570.44 141.01 1570.38 142.9C1570.38 144.8 1572.48 147.44 1575.25 149C1578.1 150.49 1580.2 150.22 1580.27 148.25C1580.22 146.29 1578.1 143.72 1575.39 142.16Z" />
			<path id="path7483" class="shp2" d="M1628.03 385.1C1624.84 382.94 1622.47 384.49 1622.4 388.69C1622.55 392.96 1625.04 398.11 1628.23 400.41C1631.48 402.71 1633.85 401.16 1633.79 396.75C1633.64 392.49 1631.15 387.4 1628.03 385.1" />
			<path id="path7485" class="shp2" d="M1560.35 123.6C1557.64 122.11 1555.47 122.38 1555.34 124.09C1555.29 125.92 1557.3 128.43 1560.08 129.98C1562.79 131.4 1565.03 131.13 1565.09 129.37C1565.14 127.61 1563.06 125.11 1560.35 123.62" />
			<path id="path7487" class="shp2" d="M1591.45 201.89C1588.74 200.47 1586.63 201.02 1586.63 203.25C1586.63 205.55 1588.73 208.53 1591.45 210.09C1594.15 211.58 1596.25 210.97 1596.25 208.67C1596.25 206.37 1594.15 203.46 1591.45 201.9" />
			<path id="path7489" class="shp2" d="M1591.24 163.02C1589.01 161.8 1587.31 162.14 1587.25 163.77C1587.29 165.46 1589.07 167.76 1591.38 169.05C1593.69 170.34 1595.38 169.93 1595.38 168.24C1595.33 166.54 1593.55 164.24 1591.24 163.02" />
			<path id="path7491" class="shp2" d="M1591.04 267.93C1588.4 266.37 1586.23 267.25 1586.16 269.96C1586.11 272.67 1588.19 276.06 1590.91 277.61C1593.68 279.17 1595.78 278.29 1595.85 275.52C1595.85 272.81 1593.75 269.49 1591.04 267.93" />
			<path id="path7493" class="shp2" d="M1610.21 320.96C1607.16 319.07 1604.72 320.28 1604.66 323.88C1604.66 327.47 1607.09 331.8 1610.21 333.83C1613.4 335.73 1615.77 334.44 1615.77 330.79C1615.72 327.2 1613.33 322.93 1610.21 320.97" />
			<path id="path7495" class="shp2" d="M1575.19 154.48C1573.09 153.4 1571.53 153.67 1571.46 155.16C1571.46 156.65 1573.02 158.69 1575.05 159.84C1577.15 160.99 1578.78 160.65 1578.84 159.16C1578.8 157.67 1577.22 155.63 1575.19 154.48" />
			<path id="path7497" class="shp2" d="M1608.65 393.91C1606.15 392.35 1604.25 393.56 1604.12 396.89C1604.12 400.2 1606.01 404.07 1608.52 405.76C1611.03 407.32 1612.92 406.05 1612.99 402.71C1612.99 399.39 1611.1 395.53 1608.66 393.91" />
			<path id="path7499" class="shp2" d="M1624.64 206.97C1622.06 205.49 1620.17 206.03 1620.24 208.26C1620.43 210.5 1622.54 213.41 1625.11 215.03C1627.75 216.52 1629.59 215.98 1629.45 213.68C1629.3 211.44 1627.21 208.53 1624.64 206.97" />
			<path id="path7501" class="shp2" d="M1591.11 130.85C1588.74 129.56 1586.97 129.7 1586.97 131.24C1587.02 132.8 1588.87 135.1 1591.24 136.39C1593.68 137.68 1595.44 137.47 1595.37 135.9C1595.32 134.34 1593.41 132.1 1591.11 130.82" />
			<path id="path7503" class="shp2" d="M1684.46 218.83C1682.56 217.61 1681.34 217.95 1681.55 219.71C1681.89 221.47 1683.51 223.84 1685.41 225.19C1687.31 226.41 1688.53 226 1688.26 224.18C1687.91 222.42 1686.29 220.04 1684.46 218.83" />
			<path id="path7505" class="shp2" d="M1644.35 264.82C1641.64 263.12 1639.75 263.94 1639.88 266.71C1640.08 269.56 1642.32 273.15 1645.03 275.04C1647.74 276.74 1649.7 275.92 1649.5 273.08C1649.31 270.16 1647.06 266.58 1644.35 264.81" />
			<path id="path7507" class="shp2" d="M1636.02 438.41C1633.78 436.58 1632.09 437.87 1632.09 441.52C1632.24 445.25 1634.06 449.65 1636.29 451.61C1638.6 453.58 1640.22 452.22 1640.15 448.5C1640 444.77 1638.25 440.37 1636.02 438.41" />
			<path id="path7509" class="shp2" d="M1588.87 355.91C1586.16 354.35 1583.99 355.62 1583.79 358.89C1583.74 362.21 1585.76 366 1588.53 367.7C1591.31 369.32 1593.41 368.04 1593.55 364.65C1593.6 361.4 1591.58 357.6 1588.87 355.91" />
			<path id="path7511" class="shp2" d="M1626.33 238.13C1624.44 236.98 1623.02 237.45 1623.08 239.35C1623.13 241.18 1624.71 243.55 1626.67 244.77C1628.64 245.92 1630.06 245.38 1629.99 243.55C1629.84 241.65 1628.3 239.28 1626.33 238.13" />
			<path id="path7513" class="shp2" d="M1590.23 121.23C1588.2 120.14 1586.7 120.08 1586.7 121.52C1586.75 122.94 1588.33 124.71 1590.36 125.79C1592.39 126.94 1593.88 126.94 1593.88 125.5C1593.83 124.08 1592.19 122.31 1590.23 121.23Z" />
			<path id="path7515" class="shp2" d="M1604.59 129.83C1602.89 128.88 1601.68 128.88 1601.74 130.13C1601.89 131.34 1603.16 132.77 1604.79 133.71C1606.42 134.59 1607.7 134.59 1607.64 133.37C1607.49 132.22 1606.21 130.73 1604.59 129.85" />
			<path id="path7517" class="shp2" d="M1568.82 321.3C1566.38 319.95 1564.35 320.96 1564.14 323.67C1564.09 326.38 1565.84 329.5 1568.28 330.92C1570.72 332.21 1572.75 331.21 1572.88 328.48C1573.03 325.77 1571.26 322.66 1568.82 321.3" />
			<path id="path7519" class="shp2" d="M1548.7 287.64C1546.26 286.49 1544.22 287.35 1544.02 289.81C1543.83 292.25 1545.51 295.16 1547.95 296.45C1550.39 297.66 1552.42 296.79 1552.63 294.35C1552.77 291.84 1551.07 289 1548.7 287.64" />
			<path id="path7521" class="shp2" d="M1530.07 256.48C1527.7 255.33 1525.66 256.14 1525.32 258.31C1525.13 260.55 1526.75 263.26 1529.12 264.54C1531.56 265.69 1533.59 264.89 1533.86 262.65C1534.06 260.41 1532.44 257.77 1530.07 256.48" />
			<path id="path7523" class="shp2" d="M1603.64 120.69C1601.88 119.74 1600.59 119.67 1600.66 120.88C1600.81 122.17 1602.22 123.66 1603.98 124.68C1605.74 125.63 1607.03 125.7 1606.96 124.38C1606.81 123.16 1605.4 121.68 1603.64 120.66" />
			<path id="path7525" class="shp2" d="M1614.95 120.96C1613.39 120.15 1612.31 120.08 1612.31 121.15C1612.46 122.24 1613.67 123.52 1615.16 124.4C1616.72 125.21 1617.87 125.28 1617.8 124.21C1617.65 123.12 1616.44 121.84 1614.95 120.95" />
			<path id="path7527" class="shp2" d="M1661.43 277.89C1659.73 276.74 1658.51 277.28 1658.65 279.18C1658.84 281.07 1660.28 283.51 1661.97 284.73C1663.73 285.81 1664.88 285.34 1664.74 283.37C1664.6 281.48 1663.19 279.11 1661.43 277.89" />
			<path id="path7529" class="shp2" d="M1645.64 282.22C1643.54 280.87 1641.91 281.54 1642.05 283.91C1642.2 286.28 1643.95 289.26 1646.19 290.75C1648.35 292.24 1649.91 291.5 1649.78 289.06C1649.63 286.69 1647.81 283.71 1645.64 282.22" />
			<path id="path7531" class="shp2" d="M1628.03 271.25C1626 269.96 1624.5 270.57 1624.5 272.74C1624.65 274.84 1626.26 277.48 1628.3 278.77C1630.33 280.05 1631.82 279.38 1631.75 277.21C1631.61 275.11 1629.99 272.47 1628.03 271.25" />
			<path id="path7533" class="shp2" d="M1609.94 260.55C1608.04 259.46 1606.62 260.01 1606.62 261.91C1606.62 263.73 1608.11 266.1 1610.01 267.26C1611.91 268.34 1613.26 267.75 1613.26 265.9C1613.26 264 1611.77 261.7 1609.94 260.55Z" />
			<path id="path7535" class="shp2" d="M1591.45 249.85C1589.48 248.77 1587.99 249.36 1587.92 251.14C1587.97 252.96 1589.41 255.27 1591.38 256.35C1593.27 257.44 1594.76 256.89 1594.76 255.06C1594.76 253.23 1593.34 250.93 1591.45 249.85" />
			<path id="path7537" class="shp2" d="M1662.37 294.41C1660.61 293.19 1659.46 293.8 1659.53 295.83C1659.72 297.8 1661.22 300.37 1662.91 301.66C1664.61 302.88 1665.82 302.27 1665.69 300.24C1665.54 298.21 1664.13 295.63 1662.37 294.41Z" />
			<path id="path7539" class="shp2" d="M1679.85 307.62C1678.29 306.47 1677.28 307.01 1677.41 308.91C1677.61 310.81 1678.9 313.17 1680.46 314.39C1682.02 315.61 1683.04 315.07 1682.9 313.11C1682.7 311.21 1681.34 308.77 1679.85 307.62Z" />
			<path id="path7541" class="shp2" d="M1590.84 141.07C1588.94 139.99 1587.45 140.06 1587.45 141.47C1587.5 142.96 1589.01 144.72 1590.97 145.8C1592.87 146.82 1594.36 146.75 1594.36 145.26C1594.31 143.84 1592.8 142.08 1590.84 141.06" />
			<path id="path7543" class="shp2" d="M1475.06 187.4C1470.52 185.3 1466.39 186.31 1465.37 189.91C1464.56 193.56 1467.47 198.1 1472.08 200.34C1476.75 202.5 1480.89 201.35 1481.77 197.7C1482.45 194.04 1479.6 189.64 1475.06 187.4" />
			<path id="path7545" class="shp2" d="M1455.35 176.29C1449.59 173.65 1444.17 174.94 1442.75 179.27C1441.53 183.81 1445.05 189.43 1450.94 192.28C1456.9 194.92 1462.32 193.49 1463.54 188.96C1464.63 184.49 1461.04 179.07 1455.35 176.29" />
			<path id="path7547" class="shp2" d="M1323.18 36.77C1326.29 37.86 1327.78 39.75 1326.77 41.24C1325.55 42.66 1322.29 43 1319.11 41.99C1315.93 40.97 1314.37 39.08 1315.52 37.52C1316.74 36.1 1320.06 35.76 1323.18 36.77" />
			<path id="path7549" class="shp2" d="M1344.99 43.54C1348.65 44.96 1350.55 47.4 1349.33 49.3C1348.04 51.06 1344.18 51.4 1340.38 50.05C1336.59 48.63 1334.69 46.18 1335.98 44.29C1337.34 42.53 1341.26 42.19 1344.99 43.54" />
			<path id="path7551" class="shp2" d="M1336.73 216.05C1340.18 217.47 1341.87 220.59 1340.65 223.5C1339.3 226.35 1335.57 227.5 1331.92 226.21C1328.39 224.79 1326.7 221.53 1328.06 218.69C1329.41 215.84 1333.2 214.76 1336.73 216.05" />
			<path id="path7553" class="shp2" d="M1367.96 200.4C1372.63 202.37 1375.14 206.7 1373.65 210.56C1372.02 214.36 1367.08 215.85 1362.2 213.95C1357.32 211.92 1354.88 207.45 1356.51 203.59C1358.2 199.86 1363.15 198.51 1367.96 200.4" />
			<path id="path7555" class="shp2" d="M1399.25 191.33C1404.27 193.57 1406.98 198.17 1405.69 202.17C1404.13 206.09 1399.19 207.52 1394.04 205.41C1388.96 203.18 1386.18 198.44 1387.67 194.44C1389.3 190.58 1394.31 189.29 1399.25 191.33" />
			<path id="path7557" class="shp2" d="M1457.85 91.29C1462.05 93.39 1464.76 96.98 1464.02 99.49C1463.27 102.06 1459.34 102.4 1455.01 100.37C1450.67 98.2 1447.96 94.61 1448.78 92.04C1449.72 89.6 1453.58 89.33 1457.85 91.29" />
			<path id="path7559" class="shp2" d="M1358.68 61.29C1362.6 62.85 1364.7 65.55 1363.55 67.66C1362.2 69.69 1358.2 70.16 1354.14 68.74C1350.14 67.18 1348.04 64.41 1349.26 62.31C1350.68 60.28 1354.75 59.87 1358.68 61.29" />
			<path id="path7561" class="shp2" d="M1378.86 69.01C1382.86 70.64 1385.1 73.62 1383.94 75.85C1382.72 78.02 1378.73 78.49 1374.6 76.87C1370.46 75.18 1368.23 72.19 1369.45 69.96C1370.67 67.79 1374.8 67.38 1378.86 69.01" />
			<path id="path7563" class="shp2" d="M1412.4 96.1C1416.8 98.13 1419.31 101.66 1418.29 104.36C1417.14 107.01 1412.8 107.55 1408.33 105.58C1403.79 103.55 1401.29 100.03 1402.37 97.25C1403.66 94.75 1407.99 94.21 1412.4 96.1" />
			<path id="path7565" class="shp2" d="M1398.37 76.6C1402.64 78.49 1405.08 81.81 1404.06 84.32C1402.85 86.69 1398.58 87.16 1394.11 85.33C1389.7 83.37 1387.2 80.05 1388.42 77.55C1389.7 75.18 1394.04 74.77 1398.37 76.6" />
			<path id="path7567" class="shp2" d="M1417.82 84.99C1422.35 87.09 1425 90.68 1424.05 93.39C1422.9 96.04 1418.43 96.51 1413.75 94.48C1409.08 92.31 1406.37 88.65 1407.52 85.94C1408.81 83.37 1413.21 82.97 1417.82 85" />
			<path id="path7569" class="shp2" d="M1431.64 104.43C1436.38 106.67 1439.22 110.6 1438.28 113.58C1437.12 116.55 1432.59 117.23 1427.71 115C1422.83 112.69 1419.98 108.7 1421.07 105.65C1422.29 102.8 1426.89 102.26 1431.64 104.43" />
			<path id="path7571" class="shp2" d="M1428.32 183.4C1433.19 185.71 1436.04 190.31 1434.96 194.17C1433.74 198.04 1428.93 199.32 1423.85 197.15C1418.83 194.85 1415.99 190.11 1417.21 186.25C1418.63 182.45 1423.37 181.3 1428.32 183.4" />
			<path id="path7573" class="shp2" d="M1433.33 167.22C1438.61 169.72 1441.73 174.53 1440.58 178.53C1439.29 182.52 1434.21 183.81 1428.79 181.37C1423.37 178.87 1420.26 173.86 1421.47 169.86C1422.96 166 1428.05 164.85 1433.33 167.22" />
			<path id="path7575" class="shp2" d="M1437.87 151.98C1443.49 154.69 1446.88 159.77 1445.73 163.9C1444.44 168.03 1438.95 169.25 1433.13 166.68C1427.3 163.9 1423.85 158.62 1425.2 154.48C1426.69 150.49 1432.18 149.4 1437.87 151.98" />
			<path id="path7577" class="shp2" d="M1442.41 137.76C1447.89 140.33 1451.21 145.21 1450.13 149.07C1448.91 152.92 1443.7 153.94 1438 151.43C1432.38 148.73 1429.06 143.71 1430.28 139.85C1431.7 136.06 1436.92 135.18 1442.41 137.75" />
			<path id="path7579" class="shp2" d="M1446.34 125.36C1451.08 127.67 1454.06 131.86 1453.18 135.11C1452.1 138.3 1447.56 139.11 1442.68 136.81C1437.73 134.5 1434.82 130.17 1435.84 126.92C1436.99 123.8 1441.53 123.13 1446.34 125.36" />
			<path id="path7581" class="shp2" d="M1450.81 112.83C1455.96 115.41 1459.14 119.81 1458.26 123.19C1457.18 126.58 1452.3 127.19 1447.01 124.75C1441.66 122.18 1438.41 117.64 1439.49 114.25C1440.78 111 1445.59 110.39 1450.81 112.83" />
			<path id="path7583" class="shp2" d="M1454.67 101.45C1459.68 103.96 1462.8 108.16 1461.92 111.34C1460.9 114.46 1456.3 115 1451.08 112.63C1445.93 110.12 1442.75 105.72 1443.76 102.54C1444.91 99.56 1449.59 99.08 1454.67 101.46" />
			<path id="path7585" class="shp2" d="M1494.57 98.88C1497.89 100.57 1500.19 103.48 1499.79 105.52C1499.3 107.55 1496.4 107.82 1492.95 106.13C1489.56 104.37 1487.32 101.45 1487.73 99.35C1488.27 97.39 1491.25 97.12 1494.57 98.86" />
			<path id="path7587" class="shp2" d="M1497.28 89.67C1500.26 91.29 1502.36 93.86 1502.02 95.7C1501.63 97.45 1498.98 97.66 1495.86 96.09C1492.74 94.46 1490.64 91.82 1491.05 89.99C1491.54 88.23 1494.17 88.1 1497.28 89.65" />
			<path id="path7589" class="shp2" d="M1499.86 81.13C1502.5 82.55 1504.32 84.79 1503.99 86.28C1503.65 87.77 1501.41 87.84 1498.71 86.48C1496 85.06 1494.23 82.82 1494.51 81.26C1494.9 79.84 1497.22 79.77 1499.86 81.11" />
			<path id="path7591" class="shp2" d="M1502.23 72.87C1504.6 74.16 1506.29 75.99 1506.02 77.48C1505.68 78.96 1503.65 78.83 1501.28 77.52C1498.84 76.24 1497.14 74.41 1497.48 72.92C1497.83 71.43 1499.85 71.63 1502.23 72.87Z" />
			<path id="path7593" class="shp2" d="M1504.53 65.42C1506.7 66.64 1508.26 68.27 1508.05 69.62C1507.71 70.97 1505.89 70.77 1503.58 69.62C1501.34 68.4 1499.79 66.7 1500.06 65.42C1500.45 64.06 1502.29 64.27 1504.53 65.42Z" />
			<path id="path7595" class="shp2" d="M1506.56 58.38C1508.53 59.39 1509.88 60.81 1509.68 62.03C1509.43 63.18 1507.78 62.98 1505.82 61.98C1503.85 60.83 1502.43 59.41 1502.7 58.26C1503 57.11 1504.6 57.31 1506.56 58.41" />
			<path id="path7597" class="shp2" d="M1508.39 52.35C1510.15 53.37 1511.44 54.65 1511.3 55.73C1511.06 56.75 1509.54 56.55 1507.71 55.54C1505.81 54.52 1504.6 53.23 1504.8 52.22C1504.99 51.14 1506.56 51.41 1508.39 52.37" />
			<path id="path7599" class="shp2" d="M1510.22 46.25C1511.85 47.13 1513 48.28 1512.8 49.23C1512.6 50.11 1511.31 49.84 1509.68 49.03C1508.12 48.09 1506.9 47 1507.1 46.06C1507.3 45.18 1508.66 45.45 1510.22 46.25Z" />
			<path id="path7601" class="shp2" d="M1468.42 215.37C1464.83 213.68 1462.66 210.09 1463.34 207.11C1464.09 204.26 1467.34 203.38 1470.86 205.01C1474.39 206.71 1476.55 210.23 1476.01 213.14C1475.26 216.12 1472.01 217.07 1468.42 215.38" />
			<path id="path7603" class="shp2" d="M1464.63 234.2C1461.17 232.57 1459.07 229.05 1459.75 226.14C1460.56 223.23 1463.62 222.22 1467.07 223.77C1470.39 225.4 1472.49 228.85 1471.88 231.76C1471.13 234.68 1468.01 235.76 1464.63 234.2" />
			<path id="path7605" class="shp2" d="M1460.97 254.11C1457.58 252.56 1455.55 248.97 1456.23 245.92C1457.04 242.94 1460.15 241.85 1463.54 243.34C1466.79 244.9 1468.83 248.42 1468.22 251.47C1467.47 254.45 1464.35 255.67 1460.97 254.11" />
			<path id="path7607" class="shp2" d="M1457.65 275.72C1454.46 274.3 1452.64 270.84 1453.31 267.86C1454.06 264.95 1457.04 263.73 1460.22 265.16C1463.27 266.58 1465.1 269.96 1464.49 272.94C1463.81 275.92 1460.83 277.14 1457.65 275.72" />
			<path id="path7609" class="shp2" d="M1453.31 299.22C1450.34 297.87 1448.64 294.55 1449.32 291.57C1450.13 288.72 1452.91 287.5 1455.82 288.79C1458.74 290.15 1460.43 293.4 1459.82 296.31C1459.07 299.16 1456.29 300.44 1453.31 299.22" />
			<path id="path7611" class="shp2" d="M1448.71 325.91C1445.93 324.69 1444.44 321.5 1445.12 318.59C1445.87 315.75 1448.51 314.46 1451.28 315.61C1453.99 316.83 1455.55 319.95 1454.94 322.86C1454.19 325.77 1451.49 327.06 1448.71 325.91" />
			<path id="path7613" class="shp2" d="M1436.45 93.66C1440.78 95.76 1443.42 99.35 1442.61 102.06C1441.59 104.64 1437.46 105.18 1432.99 103.08C1428.45 100.98 1425.81 97.32 1426.76 94.61C1427.91 92.04 1432.04 91.63 1436.45 93.66" />
			<path id="path7615" class="shp2" d="M1426.62 117.17C1430.55 118.99 1432.92 122.38 1432.04 124.95C1431.09 127.53 1427.3 128.14 1423.24 126.37C1419.17 124.48 1416.8 121.02 1417.75 118.45C1418.83 115.94 1422.63 115.4 1426.62 117.16" />
			<path id="path7617" class="shp2" d="M1422.08 129.56C1426.62 131.66 1429.2 135.59 1428.25 138.7C1427.1 141.75 1422.69 142.57 1418.02 140.53C1413.34 138.36 1410.7 134.37 1411.79 131.25C1413.08 128.27 1417.48 127.6 1422.08 129.56" />
			<path id="path7619" class="shp2" d="M1405.42 174.13C1409.89 176.16 1412.4 180.22 1411.25 183.68C1410.03 187.13 1405.49 188.21 1400.88 186.32C1396.27 184.29 1393.77 180.08 1394.99 176.63C1396.34 173.24 1400.88 172.23 1405.42 174.12" />
			<path id="path7621" class="shp2" d="M1365.18 50.59C1369.38 52.35 1371.61 55.26 1370.33 57.43C1368.97 59.6 1364.64 59.93 1360.37 58.17C1356.03 56.48 1353.8 53.5 1355.15 51.33C1356.64 49.24 1360.98 48.9 1365.18 50.59" />
			<path id="path7623" class="shp2" d="M1359.69 221.4C1364.1 223.3 1366.33 227.5 1364.84 231.22C1363.28 235.02 1358.61 236.57 1354.07 234.81C1349.53 232.91 1347.29 228.65 1348.85 224.79C1350.54 221.13 1355.22 219.71 1359.69 221.4" />
			<path id="path7625" class="shp2" d="M1328.39 233.93C1332.86 235.69 1334.9 239.89 1333.27 243.75C1331.44 247.61 1326.56 249.31 1321.89 247.61C1317.35 245.86 1315.25 241.52 1317.08 237.66C1318.98 233.86 1323.86 232.31 1328.39 233.93" />
			<path id="path7627" class="shp2" d="M1392.14 210.84C1396.75 212.87 1399.25 217.27 1397.97 221.2C1396.48 225.06 1391.8 226.55 1386.99 224.58C1382.32 222.49 1379.81 217.95 1381.17 214.02C1382.73 210.29 1387.47 208.87 1392.14 210.83" />
			<path id="path7629" class="shp2" d="M1422.29 202.23C1426.62 204.2 1429.13 208.46 1428.11 212.05C1426.89 215.64 1422.63 217 1418.16 215.03C1413.62 213 1411.11 208.67 1412.26 205.01C1413.55 201.48 1417.82 200.27 1422.29 202.23" />
			<path id="path7631" class="shp2" d="M1450.13 193.77C1454.67 195.93 1457.51 200.4 1456.63 204.13C1455.55 207.92 1451.15 209.21 1446.4 207.04C1441.66 204.81 1438.88 200.27 1439.9 196.48C1441.05 192.82 1445.46 191.67 1450.13 193.77" />
			<path id="path7633" class="shp2" d="M1411.11 158.41C1415.24 160.38 1417.68 164.1 1416.6 167.15C1415.52 170.2 1411.38 171.15 1407.05 169.32C1402.78 167.42 1400.41 163.56 1401.49 160.51C1402.78 157.53 1406.91 156.65 1411.11 158.41" />
			<path id="path7635" class="shp2" d="M1461.04 81.54C1464.69 83.44 1467 86.48 1466.46 88.65C1465.78 90.75 1462.39 91.02 1458.53 89.19C1454.8 87.29 1452.43 84.18 1453.11 82.01C1453.86 79.98 1457.31 79.78 1461.04 81.52" />
			<path id="path7637" class="shp2" d="M1384.83 59.66C1388.14 61.15 1389.91 63.59 1389.02 65.35C1388.01 67.11 1384.62 67.32 1381.23 65.89C1377.85 64.4 1376.08 61.97 1377.03 60.14C1378.12 58.44 1381.5 58.24 1384.82 59.64" />
			<path id="path7639" class="shp2" d="M1401.42 121.77C1405.01 123.4 1407.11 126.31 1406.17 128.68C1405.15 131.05 1401.56 131.66 1397.9 130.17C1394.18 128.48 1392.14 125.49 1393.09 123.06C1394.18 120.82 1397.84 120.21 1401.43 121.77" />
			<path id="path7641" class="shp2" d="M1375.48 181.85C1380.01 183.81 1382.45 187.88 1381.1 191.4C1379.61 194.98 1374.93 196.2 1370.19 194.38C1365.52 192.41 1363.15 188.21 1364.57 184.62C1366.2 181.24 1370.87 180.02 1375.48 181.85" />
			<path id="path7643" class="shp2" d="M1416.33 144.53C1420.39 146.36 1422.76 149.95 1421.81 152.79C1420.66 155.64 1416.73 156.45 1412.6 154.62C1408.47 152.79 1406.1 149.13 1407.11 146.29C1408.33 143.51 1412.26 142.76 1416.33 144.53" />
			<path id="path7645" class="shp2" d="M1373.99 126.11C1378.18 127.86 1380.49 131.25 1379.27 134.1C1377.92 136.87 1373.58 137.69 1369.24 135.99C1364.91 134.17 1362.6 130.71 1363.96 127.93C1365.38 125.23 1369.72 124.41 1373.99 126.11" />
			<path id="path7647" class="shp2" d="M1301.16 247.34C1304.35 248.49 1305.7 251.47 1304.35 254.25C1302.86 257.03 1299.27 258.31 1296.01 257.23C1292.83 256.01 1291.48 253.03 1292.9 250.18C1294.46 247.48 1298.05 246.26 1301.16 247.34" />
			<path id="path7649" class="shp2" d="M1392.34 88.04C1396.21 89.73 1398.37 92.72 1397.36 95.02C1396.27 97.25 1392.41 97.73 1388.48 96.17C1384.56 94.48 1382.39 91.42 1383.4 89.12C1384.62 86.96 1388.48 86.48 1392.34 88.04" />
			<path id="path7651" class="shp2" d="M1478.11 90.55C1481.36 92.24 1483.53 95.02 1483.05 96.98C1482.51 98.95 1479.6 99.15 1476.21 97.52C1472.89 95.83 1470.72 92.99 1471.27 91.02C1471.81 89.12 1474.79 88.92 1478.11 90.53" />
			<path id="path7653" class="shp2" d="M1430.08 57.9C1432.59 58.92 1434.21 60.68 1433.94 62.04C1433.55 63.32 1431.3 63.66 1428.79 62.71C1426.22 61.7 1424.6 59.94 1424.93 58.58C1425.32 57.22 1427.57 56.95 1430.08 57.9Z" />
			<path id="path7655" class="shp2" d="M1403.12 67.32C1406.03 68.6 1407.72 70.84 1406.98 72.46C1406.17 74.02 1403.32 74.29 1400.34 73C1397.29 71.72 1395.67 69.42 1396.41 67.86C1397.22 66.23 1400.14 66.03 1403.12 67.32" />
			<path id="path7657" class="shp2" d="M1395.12 135.93C1398.85 137.55 1400.95 140.73 1399.93 143.31C1398.91 145.75 1395.12 146.49 1391.33 144.94C1387.53 143.31 1385.43 140.06 1386.52 137.55C1387.67 135.05 1391.4 134.37 1395.12 135.93Z" />
			<path id="path7659" class="shp2" d="M1380.56 113.58C1383.81 115 1385.71 117.64 1384.76 119.74C1383.74 121.84 1380.35 122.38 1376.96 121.1C1373.58 119.61 1371.75 116.96 1372.77 114.86C1373.78 112.83 1377.17 112.29 1380.56 113.58" />
			<path id="path7661" class="shp2" d="M1351.77 118.38C1355.69 119.87 1357.66 122.92 1356.44 125.36C1355.09 127.87 1351.02 128.61 1346.96 127.19C1343.03 125.63 1340.93 122.58 1342.21 120.08C1343.63 117.71 1347.77 116.96 1351.76 118.39" />
			<path id="path7663" class="shp2" d="M1338.22 54.92C1341.33 56 1342.96 58.11 1341.94 59.67C1340.79 61.29 1337.61 61.69 1334.42 60.61C1331.24 59.46 1329.62 57.5 1330.63 55.81C1331.78 54.32 1335.1 53.91 1338.22 54.93" />
			<path id="path7665" class="shp2" d="M1434.35 49.37C1437.05 50.45 1438.82 52.28 1438.48 53.7C1438.14 55.12 1435.7 55.39 1432.92 54.31C1430.22 53.23 1428.46 51.33 1428.8 49.91C1429.19 48.55 1431.64 48.28 1434.35 49.37" />
			<path id="path7667" class="shp2" d="M1443.9 73.68C1447.22 75.31 1449.25 78.02 1448.64 79.85C1447.96 81.74 1444.85 81.94 1441.39 80.34C1438.08 78.71 1436.04 76 1436.65 74.11C1437.46 72.28 1440.58 72.14 1443.9 73.71" />
			<path id="path7669" class="shp2" d="M1447.76 64.47C1450.67 65.96 1452.57 68.33 1452.1 69.96C1451.6 71.65 1448.91 71.72 1445.93 70.25C1443.02 68.83 1441.12 66.39 1441.6 64.7C1442.2 63.14 1444.84 63.07 1447.76 64.5" />
			<path id="path7671" class="shp2" d="M1406.5 109.78C1409.62 111.2 1411.38 113.78 1410.64 115.74C1409.76 117.78 1406.71 118.25 1403.52 116.83C1400.28 115.41 1398.51 112.83 1399.33 110.8C1400.21 108.9 1403.32 108.43 1406.51 109.78" />
			<path id="path7673" class="shp2" d="M1421.95 76.19C1424.52 77.41 1426.08 79.44 1425.54 80.93C1424.86 82.35 1422.35 82.56 1419.71 81.33C1417.14 80.11 1415.58 78.08 1416.19 76.58C1416.87 75.16 1419.37 74.96 1421.94 76.19" />
			<path id="path7675" class="shp2" d="M1382.25 166.27C1385.5 167.63 1387.2 170.47 1386.32 172.84C1385.3 175.21 1381.98 176.02 1378.73 174.67C1375.41 173.25 1373.72 170.4 1374.66 168.03C1375.74 165.66 1379 164.91 1382.25 166.27" />
			<path id="path7677" class="shp2" d="M1439.49 84.72C1441.8 85.87 1443.22 87.7 1442.81 89.06C1442.27 90.41 1440.1 90.55 1437.73 89.55C1435.43 88.4 1434.01 86.5 1434.48 85.15C1435.02 83.86 1437.19 83.73 1439.5 84.75" />
			<path id="path7679" class="shp2" d="M1463.54 72.94C1466.12 74.29 1467.81 76.39 1467.47 77.88C1467.08 79.37 1464.76 79.51 1462.05 78.23C1459.48 76.81 1457.78 74.64 1458.12 73.15C1458.62 71.73 1460.9 71.59 1463.54 72.95" />
			<path id="path7681" class="shp2" d="M1371.82 80.52C1375 81.81 1376.76 84.25 1375.88 86.08C1374.8 87.84 1371.55 88.24 1368.3 87.03C1364.98 85.67 1363.22 83.3 1364.23 81.4C1365.25 79.64 1368.57 79.24 1371.82 80.52" />
			<path id="path7683" class="shp2" d="M1301.57 29.73C1304.21 30.54 1305.43 32.03 1304.41 33.25C1303.4 34.4 1300.55 34.67 1297.84 33.92C1295.2 33.11 1293.98 31.56 1295 30.41C1296.08 29.25 1298.99 28.92 1301.57 29.73Z" />
			<path id="path7685" class="shp2" d="M1328.94 110.53C1332.59 111.82 1334.42 114.46 1333.2 116.69C1331.85 118.86 1327.99 119.6 1324.19 118.38C1320.47 117.09 1318.64 114.39 1319.93 112.15C1321.35 109.98 1325.21 109.31 1328.94 110.52" />
			<path id="path7687" class="shp2" d="M1293.37 267.8C1296.29 268.88 1297.44 271.72 1296.08 274.43C1294.59 277.14 1291.27 278.43 1288.29 277.41C1285.31 276.26 1284.22 273.35 1285.65 270.64C1287.07 267.99 1290.46 266.78 1293.37 267.79" />
			<path id="path7689" class="shp2" d="M1270.47 279.72C1273.05 280.6 1274.06 282.97 1272.78 285.34C1271.42 287.64 1268.37 288.86 1265.73 287.98C1263.09 287.1 1262.08 284.6 1263.43 282.29C1264.78 279.99 1267.84 278.84 1270.48 279.72" />
			<path id="path7691" class="shp2" d="M1351.56 241.72C1354.82 243.14 1356.51 246.33 1355.36 249.37C1354.07 252.29 1350.48 253.64 1347.09 252.29C1343.71 250.87 1342.08 247.54 1343.3 244.57C1344.65 241.65 1348.17 240.43 1351.56 241.72" />
			<path id="path7693" class="shp2" d="M1320.2 255.13C1323.52 256.49 1325.14 259.74 1323.99 262.72C1322.7 265.69 1319.18 266.98 1315.73 265.69C1312.41 264.27 1310.78 260.95 1312 257.97C1313.29 255.06 1316.88 253.84 1320.2 255.13" />
			<path id="path7695" class="shp2" d="M1358.74 106.06C1361.25 107.01 1362.54 108.9 1361.79 110.39C1360.91 111.88 1358.4 112.36 1355.9 111.41C1353.32 110.39 1352.03 108.5 1352.85 107.01C1353.66 105.52 1356.24 105.11 1358.74 106.06" />
			<path id="path7697" class="shp2" d="M1423.17 36.57C1425.34 37.45 1426.69 38.73 1426.35 39.95C1425.96 41.04 1424.05 41.1 1421.95 40.25C1419.78 39.37 1418.43 38.08 1418.76 36.93C1419.26 35.78 1421.13 35.78 1423.17 36.59" />
			<path id="path7699" class="shp2" d="M1384.62 231.36C1387.47 232.58 1388.96 235.35 1388.08 237.93C1387.13 240.36 1384.21 241.38 1381.37 240.23C1378.46 238.94 1376.97 236.1 1377.92 233.59C1378.86 231.16 1381.78 230.21 1384.62 231.36" />
			<path id="path7701" class="shp2" d="M1415.51 220.93C1418.15 222.15 1419.65 224.79 1418.97 227.09C1418.22 229.33 1415.58 230.28 1412.87 229.12C1410.16 227.83 1408.67 225.19 1409.35 222.82C1410.16 220.58 1412.8 219.77 1415.51 220.92" />
			<path id="path7703" class="shp2" d="M1444.1 214.56C1446.68 215.71 1448.17 218.22 1447.63 220.38C1447.02 222.48 1444.58 223.3 1442 222.14C1439.43 220.99 1437.94 218.35 1438.55 216.25C1439.16 214.15 1441.53 213.41 1444.1 214.56" />
			<path id="path7705" class="shp2" d="M1304.34 104.16C1306.78 104.91 1307.93 106.6 1307.05 108.02C1306.1 109.44 1303.46 109.92 1300.96 109.17C1298.45 108.43 1297.23 106.74 1298.18 105.31C1299.13 103.89 1301.84 103.35 1304.34 104.16" />
			<path id="path7707" class="shp2" d="M1320.54 121.97C1323.51 123.06 1325 125.22 1323.92 127.12C1322.77 128.95 1319.66 129.63 1316.54 128.61C1313.56 127.59 1312.07 125.36 1313.15 123.53C1314.3 121.7 1317.56 121.02 1320.54 121.97" />
			<path id="path7709" class="shp2" d="M1343.84 132.34C1346.48 133.35 1347.77 135.38 1346.96 137.14C1346.01 138.84 1343.3 139.38 1340.59 138.43C1337.95 137.41 1336.59 135.38 1337.47 133.62C1338.42 132 1341.2 131.39 1343.84 132.34Z" />
			<path id="path7711" class="shp2" d="M1366.81 141.55C1369.11 142.5 1370.33 144.39 1369.65 146.02C1368.9 147.5 1366.53 148.05 1364.16 147.17C1361.79 146.15 1360.58 144.25 1361.32 142.63C1362.06 141.14 1364.43 140.66 1366.81 141.54" />
			<path id="path7713" class="shp2" d="M1388.75 150.83C1390.99 151.78 1392.21 153.74 1391.6 155.36C1390.92 156.92 1388.62 157.39 1386.32 156.45C1384.02 155.5 1382.8 153.54 1383.41 151.91C1384.15 150.36 1386.45 149.88 1388.76 150.83" />
			<path id="path7715" class="shp2" d="M1438.21 42.32C1440.24 43.2 1441.66 44.49 1441.39 45.64C1441.05 46.73 1439.29 46.79 1437.19 45.99C1435.16 45.17 1433.74 43.89 1434.08 42.67C1434.42 41.58 1436.18 41.58 1438.21 42.32" />
			<path id="path7717" class="shp2" d="M1427.37 29.86C1429.27 30.61 1430.49 31.83 1430.15 32.84C1429.85 33.79 1428.25 33.86 1426.42 33.04C1424.59 32.29 1423.37 31.07 1423.64 30.06C1423.99 29.04 1425.54 29.04 1427.37 29.86Z" />
			<path id="path7719" class="shp2" d="M1416.06 18.96C1417.68 19.64 1418.83 20.65 1418.63 21.6C1418.29 22.48 1416.87 22.55 1415.24 21.89C1413.55 21.21 1412.4 20.2 1412.6 19.25C1412.95 18.3 1414.36 18.3 1416.06 18.95" />
			<path id="path7721" class="shp2" d="M1450.74 57.02C1452.84 58.1 1454.27 59.73 1453.93 61.02C1453.43 62.31 1451.62 62.24 1449.39 61.17C1447.22 60.08 1445.8 58.46 1446.14 57.1C1446.63 55.88 1448.51 55.95 1450.75 57.05" />
			<path id="path7723" class="shp2" d="M1296.28 115C1298.86 115.81 1300.01 117.57 1299.06 119.06C1298.04 120.55 1295.33 121.16 1292.76 120.42C1290.18 119.61 1288.97 117.84 1289.98 116.35C1291 114.87 1293.71 114.26 1296.28 115" />
			<path id="path7725" class="shp2" d="M1273.66 108.83C1276.03 109.44 1277.11 110.93 1276.23 112.36C1275.15 113.71 1272.58 114.26 1270.07 113.71C1267.63 113.04 1266.61 111.55 1267.56 110.19C1268.58 108.83 1271.22 108.29 1273.66 108.83" />
			<path id="path7727" fill-rule="evenodd" class="shp2" d="M1465.84 100.4C1466.79 97.48 1471.13 97.08 1476 99.45C1480.75 101.96 1484.13 105.96 1483.46 108.93C1484.27 105.95 1488.4 105.82 1493.14 108.19C1497.07 110.22 1499.92 113.4 1500.53 116.25C1502.09 114.23 1505.88 114.16 1510.28 116.39C1514.62 118.7 1517.73 122.29 1518.41 125.4C1519.84 123.73 1523.15 123.73 1526.95 125.7C1530.88 127.8 1533.86 131.18 1534.47 134.16C1535.62 132.08 1538.94 132.02 1542.94 134.11C1547.47 136.55 1550.81 140.82 1550.66 144C1550.32 146.71 1547.54 147.53 1543.68 146.17C1547.81 149.01 1550.67 153.14 1550.52 156.33C1550.18 159.18 1547.82 160.26 1544.29 159.58C1547.61 162.49 1549.7 166.01 1549.51 168.99C1549.17 172.45 1545.92 173.6 1541.45 172.11C1545.72 175.22 1548.65 179.7 1548.36 183.28C1548.02 186.33 1545.71 187.74 1542.26 187.35C1545.44 190.46 1547.38 194.12 1547.14 197.37C1546.8 200.9 1544.02 202.45 1540.09 201.71C1543.75 204.96 1546.03 209.36 1545.78 213.02C1545.31 217.96 1540.43 219.45 1534.47 216.47C1530.2 214.24 1526.95 210.45 1525.52 206.58C1523.36 208.7 1519.56 208.83 1515.23 206.73C1511.03 204.63 1507.85 200.98 1506.49 197.25C1504.12 199.17 1500.32 199.3 1495.99 197.2C1491.79 195.1 1488.61 191.51 1487.25 187.85C1484.81 189.67 1480.88 189.81 1476.55 187.71C1471.47 185.27 1468.01 180.87 1467.4 176.73C1465.03 179.44 1460.29 179.91 1455.14 177.55C1448.84 174.5 1445.04 168.67 1446.33 164C1447.42 160.54 1451 159.12 1455.48 159.87C1451.69 156.68 1449.72 152.69 1450.67 149.44C1451.55 146.45 1454.6 145.08 1458.46 145.57C1455.34 142.66 1453.72 139.21 1454.53 136.36C1455.62 132.99 1459.68 131.89 1464.49 133.38C1460.09 130.4 1457.58 126.21 1458.46 123.02C1459.34 120.34 1462.39 119.3 1466.32 120.04C1463 117.2 1461.24 113.88 1461.91 111.31C1462.86 108.33 1466.73 107.58 1471.26 109.14C1467.4 106.56 1465.17 103.04 1465.84 100.47M1500.74 121.34C1498.84 120.42 1497.22 120.48 1496.87 121.84C1496.67 123.12 1497.95 124.75 1499.85 125.76C1501.75 126.69 1503.4 126.56 1503.65 125.27C1503.85 123.92 1502.63 122.36 1500.73 121.34L1500.74 121.34ZM1517.33 129.86C1515.44 128.93 1513.85 128.99 1513.61 130.35C1513.41 131.7 1514.76 133.33 1516.65 134.35C1518.55 135.29 1520.12 135.16 1520.31 133.81C1520.52 132.45 1519.16 130.83 1517.33 129.88L1517.33 129.86ZM1529.73 138.66C1529.53 140.08 1531.09 142.05 1533.12 143.2C1535.29 144.22 1536.97 144.01 1537.11 142.59C1537.32 141.1 1535.83 139.2 1533.73 138.05C1531.63 137.04 1529.93 137.24 1529.73 138.66ZM1479.66 124.17C1477.7 123.15 1475.86 123.35 1475.46 124.71C1475.19 126.13 1476.48 127.83 1478.51 128.84C1480.55 129.86 1482.3 129.65 1482.65 128.23C1482.99 126.88 1481.63 125.19 1479.67 124.17L1479.66 124.17ZM1532.91 151.26C1530.94 150.24 1529.38 150.45 1529.18 151.87C1529.05 153.36 1530.4 155.12 1532.37 156.14C1534.27 157.15 1535.9 156.95 1536.09 155.46C1536.16 153.97 1534.81 152.28 1532.91 151.26ZM1472.35 136.97C1472.01 138.46 1473.36 140.29 1475.39 141.37C1477.49 142.32 1479.39 142.05 1479.73 140.63C1480.07 139.21 1478.71 137.38 1476.68 136.29C1474.58 135.34 1472.74 135.61 1472.35 136.97ZM1527.55 164.74C1527.42 166.16 1528.84 168.12 1530.8 169.2C1532.77 170.22 1534.47 169.81 1534.67 168.39C1534.81 166.9 1533.39 165.01 1531.42 163.93C1529.45 162.98 1527.85 163.25 1527.55 164.74ZM1473.43 149.36C1471.34 148.35 1469.42 148.69 1469.03 150.18C1468.62 151.66 1469.98 153.63 1472.08 154.71C1474.25 155.73 1476.22 155.32 1476.62 153.83C1476.95 152.34 1475.53 150.38 1473.43 149.36L1473.43 149.36ZM1525.87 178.42C1525.66 180.05 1527.09 182.08 1529.12 183.16C1531.15 184.18 1532.92 183.77 1533.12 182.21C1533.25 180.59 1531.83 178.63 1529.8 177.54C1527.77 176.52 1526.07 176.93 1525.87 178.42ZM1473.84 167.45C1474.18 165.62 1472.69 163.32 1470.25 162.17C1467.81 161.02 1465.66 161.49 1465.17 163.18C1464.7 165.01 1466.25 167.32 1468.69 168.53C1471.13 169.68 1473.35 169.21 1473.84 167.45L1473.84 167.45ZM1486.1 173.41C1485.82 175.04 1487.25 177.07 1489.35 178.15C1491.52 179.17 1493.36 178.76 1493.75 177.14C1494.03 175.51 1492.6 173.47 1490.5 172.39C1488.4 171.38 1486.49 171.78 1486.1 173.41ZM1509.13 181.68C1507.03 180.66 1505.21 181.07 1504.87 182.69C1504.6 184.25 1506.08 186.41 1508.18 187.5C1510.28 188.51 1512.09 188.04 1512.38 186.41C1512.59 184.79 1511.16 182.69 1509.13 181.67L1509.13 181.68ZM1527.49 190.55C1525.19 189.4 1523.13 189.87 1522.89 191.77C1522.68 193.6 1524.31 195.97 1526.61 197.19C1528.98 198.4 1530.97 197.86 1531.22 196.04C1531.35 194.14 1529.8 191.77 1527.49 190.55L1527.49 190.55ZM1482.64 111.93C1480.48 110.86 1478.57 111.07 1478.17 112.42C1477.9 113.78 1479.32 115.68 1481.49 116.83C1483.66 117.84 1485.65 117.64 1485.9 116.28C1486.24 114.86 1484.82 113.04 1482.65 111.95L1482.64 111.93Z" />
		</g>
		<g id="g7785">
		</g>
	</g>
</svg>